<svg width="198" height="88" viewBox="0 0 198 88" fill="none" xmlns="http://www.w3.org/2000/svg">
<path d="M7.71197 12.16C8.12797 12.16 8.41597 11.84 8.41597 11.456V1.21602C8.41597 0.864016 8.14397 0.560016 7.79197 0.560016C7.43997 0.560016 7.13597 0.864016 7.13597 1.21602V9.45602L2.52797 0.944016C2.39997 0.704016 2.12797 0.560016 1.85597 0.560016C1.45597 0.560016 1.16797 0.864016 1.16797 1.26402V11.504C1.16797 11.856 1.43997 12.16 1.79197 12.16C2.14397 12.16 2.44797 11.856 2.44797 11.504V3.26402L7.05597 11.792C7.18397 12.016 7.45597 12.16 7.71197 12.16Z" fill="black"/>
<path d="M12.3137 1.31202C12.3137 0.880015 11.9777 0.544016 11.5457 0.544016C11.1137 0.544016 10.7777 0.880015 10.7777 1.31202C10.7777 1.72802 11.1137 2.08002 11.5457 2.08002C11.9777 2.08002 12.3137 1.72802 12.3137 1.31202ZM12.1697 11.504V4.44802C12.1697 4.11202 11.8977 3.82402 11.5457 3.82402C11.1937 3.82402 10.9217 4.11202 10.9217 4.44802V11.504C10.9217 11.856 11.1937 12.128 11.5457 12.128C11.8977 12.128 12.1697 11.856 12.1697 11.504Z" fill="black"/>
<path d="M17.2276 11.024C16.0756 11.024 15.4836 10.448 15.4836 9.55202V8.60802C16.0436 8.70402 16.6356 8.75202 17.1156 8.75202C19.0196 8.75202 19.8196 7.85602 19.8196 6.38402C19.8196 4.80002 18.9396 3.77602 17.1636 3.77602C15.2596 3.77602 14.2356 4.94402 14.2356 6.48002V9.47202C14.2356 10.976 15.2756 12.128 17.0836 12.128C17.9476 12.128 19.6756 11.872 19.6756 11.088C19.6756 10.8 19.4356 10.528 19.1156 10.528C19.0036 10.528 18.9236 10.56 18.8916 10.576C18.3316 10.832 17.8996 11.024 17.2276 11.024ZM18.5876 6.38402C18.5876 7.04002 18.3796 7.69602 17.1636 7.69602C16.8436 7.69602 16.0756 7.66402 15.4836 7.58402V6.36802C15.4836 5.47202 16.0916 4.91202 17.1316 4.91202C18.0596 4.91202 18.5876 5.34402 18.5876 6.38402Z" fill="black"/>
<path d="M21.1887 9.18402C21.1887 10.832 22.0527 12.128 24.0527 12.128C24.8047 12.128 26.2767 11.904 26.2767 11.152C26.2767 10.864 26.0367 10.608 25.7327 10.608C25.6527 10.608 25.5727 10.624 25.4767 10.656C25.0927 10.848 24.7407 11.024 24.1807 11.024C22.9327 11.024 22.4367 10.352 22.4367 9.18402V6.76802C22.4367 5.60002 22.9327 4.92802 24.1807 4.92802C24.7407 4.92802 25.0927 5.10402 25.4767 5.29602C25.5727 5.32802 25.6527 5.34402 25.7327 5.34402C26.0367 5.34402 26.2767 5.08802 26.2767 4.80002C26.2767 4.04802 24.8047 3.82402 24.0527 3.82402C22.0527 3.82402 21.1887 5.12002 21.1887 6.76802V9.18402Z" fill="black"/>
<path d="M29.041 11.504V5.85602C29.505 5.23202 30.241 4.94402 30.897 4.94402C31.889 4.94402 32.289 5.47202 32.289 6.44802V11.504C32.289 11.856 32.561 12.128 32.913 12.128C33.249 12.128 33.537 11.856 33.537 11.504V6.43202C33.537 4.88002 32.753 3.77602 31.041 3.77602C30.273 3.77602 29.585 4.03202 29.041 4.44802V0.928016C29.041 0.576015 28.769 0.304016 28.417 0.304016C28.065 0.304016 27.809 0.608016 27.809 0.928016V11.504C27.809 11.856 28.081 12.128 28.433 12.128C28.785 12.128 29.041 11.856 29.041 11.504Z" fill="black"/>
<path d="M40.7152 8.75202C40.7152 10.96 41.2592 12.064 43.4992 12.064C43.9472 12.064 44.4112 12 44.4112 11.456C44.4112 10.944 43.9472 10.88 43.5792 10.88C43.4832 10.88 43.3712 10.896 43.2752 10.896C42.1232 10.896 41.9632 10.288 41.9632 8.64002V5.45602H43.6272C43.9472 5.45602 44.2032 5.20002 44.2032 4.86402C44.2032 4.52802 43.9472 4.27202 43.6272 4.27202H41.9632V2.06402C41.9632 1.72802 41.7392 1.45602 41.3392 1.45602C40.9392 1.45602 40.7152 1.72802 40.7152 2.06402V8.75202Z" fill="black"/>
<path d="M48.3682 11.024C47.2162 11.024 46.6242 10.448 46.6242 9.55202V8.60802C47.1842 8.70402 47.7762 8.75202 48.2562 8.75202C50.1602 8.75202 50.9602 7.85602 50.9602 6.38402C50.9602 4.80002 50.0802 3.77602 48.3042 3.77602C46.4002 3.77602 45.3762 4.94402 45.3762 6.48002V9.47202C45.3762 10.976 46.4162 12.128 48.2242 12.128C49.0882 12.128 50.8162 11.872 50.8162 11.088C50.8162 10.8 50.5762 10.528 50.2562 10.528C50.1442 10.528 50.0642 10.56 50.0322 10.576C49.4722 10.832 49.0402 11.024 48.3682 11.024ZM49.7282 6.38402C49.7282 7.04002 49.5202 7.69602 48.3042 7.69602C47.9842 7.69602 47.2162 7.66402 46.6242 7.58402V6.36802C46.6242 5.47202 47.2322 4.91202 48.2722 4.91202C49.2002 4.91202 49.7282 5.34402 49.7282 6.38402Z" fill="black"/>
<path d="M57.2542 6.08002C57.2542 8.19202 59.3822 8.30402 60.3902 8.84802C60.7102 9.02402 60.9822 9.26402 60.9822 9.84002C60.9822 10.672 60.3902 11.024 59.5102 11.024C58.8702 11.024 58.3582 10.832 57.9102 10.656C57.8622 10.64 57.8462 10.624 57.7502 10.624C57.3662 10.624 57.1582 10.928 57.1582 11.2C57.1582 11.936 58.6942 12.128 59.5102 12.128C61.2862 12.128 62.1982 11.232 62.1982 9.79202C62.1982 7.71202 60.3262 7.56802 59.2222 7.02402C58.6782 6.75202 58.4702 6.49602 58.4702 6.00002C58.4702 5.26402 58.9182 4.88002 59.8942 4.88002C60.4702 4.88002 60.7742 5.00802 61.1102 5.16802C61.2062 5.21602 61.2862 5.24802 61.3982 5.24802C61.7342 5.24802 61.9742 4.97602 61.9742 4.67202C61.9742 4.00002 60.6782 3.77602 59.8462 3.77602C58.1502 3.77602 57.2542 4.70402 57.2542 6.08002ZM59.2222 2.01602C59.1582 2.09602 59.1422 2.17602 59.1422 2.25602C59.1422 2.59202 59.3822 2.81602 59.6702 2.81602C59.8782 2.81602 59.9902 2.70402 60.1822 2.52802L61.4782 1.15202C61.5422 1.07202 61.5582 0.960015 61.5582 0.880015C61.5582 0.576015 61.2862 0.352015 61.0622 0.352015C60.7742 0.352015 60.6942 0.512015 60.4702 0.720016L59.2222 2.01602Z" fill="black"/>
<path d="M73.0171 4.56002C73.0171 4.52802 73.0331 4.48002 73.0331 4.44802C73.0331 4.09602 72.7451 3.82402 72.4251 3.82402C72.1531 3.82402 71.9131 4.01602 71.8491 4.27202L70.3611 10.16C69.8651 8.22402 69.3691 6.33602 68.9051 4.38402C68.8251 4.06402 68.5851 3.82402 68.2171 3.82402C67.8331 3.82402 67.5771 4.06402 67.4971 4.38402C67.0171 6.33602 66.5531 8.22402 66.0571 10.16L64.5531 4.27202C64.4731 3.98401 64.2331 3.82402 63.9771 3.82402C63.6251 3.82402 63.3531 4.11202 63.3531 4.41602C63.3531 4.44802 63.3531 4.48002 63.3691 4.51202L65.2251 11.408C65.3531 11.856 65.5931 12.128 66.0251 12.128C66.4251 12.128 66.6651 11.968 66.7771 11.584L68.2011 5.96802L69.6411 11.584C69.7371 11.936 70.0411 12.128 70.3771 12.128C70.8411 12.128 71.0331 11.888 71.1771 11.408L73.0171 4.56002Z" fill="black"/>
<path d="M76.0012 1.31202C76.0012 0.880015 75.6652 0.544016 75.2332 0.544016C74.8012 0.544016 74.4652 0.880015 74.4652 1.31202C74.4652 1.72802 74.8012 2.08002 75.2332 2.08002C75.6652 2.08002 76.0012 1.72802 76.0012 1.31202ZM75.8572 11.504V4.44802C75.8572 4.11202 75.5852 3.82402 75.2332 3.82402C74.8812 3.82402 74.6092 4.11202 74.6092 4.44802V11.504C74.6092 11.856 74.8812 12.128 75.2332 12.128C75.5852 12.128 75.8572 11.856 75.8572 11.504Z" fill="black"/>
<path d="M83.5071 14.496C83.5071 14.272 83.3151 14.064 83.0751 14.064C82.8991 14.064 82.7871 14.144 82.4031 14.144C81.9231 14.144 81.6991 13.824 81.6991 13.424C81.6991 12.96 81.7951 12.24 82.3071 11.936C82.8191 11.632 83.3631 11.504 83.3631 11.088C83.3631 10.8 83.1231 10.528 82.8031 10.528C82.6911 10.528 82.6111 10.56 82.5791 10.576C82.0191 10.832 81.5871 11.024 80.9151 11.024C79.7631 11.024 79.1711 10.448 79.1711 9.55202V8.60802C79.7311 8.70402 80.3231 8.75202 80.8031 8.75202C82.7071 8.75202 83.5071 7.85602 83.5071 6.38402C83.5071 4.80002 82.6271 3.77602 80.8511 3.77602C78.9471 3.77602 77.9231 4.94402 77.9231 6.48002V9.47202C77.9231 10.976 78.9631 12.128 80.7711 12.128C80.8831 12.128 81.0111 12.112 81.1551 12.112C80.8191 12.592 80.6271 13.152 80.6271 13.68C80.6271 14.672 81.2831 15.12 82.2751 15.12C82.7711 15.12 83.5071 15.04 83.5071 14.496ZM82.2751 6.38402C82.2751 7.04002 82.0671 7.69602 80.8511 7.69602C80.5311 7.69602 79.7631 7.66402 79.1711 7.58402V6.36802C79.1711 5.47202 79.7791 4.91202 80.8191 4.91202C81.7471 4.91202 82.2751 5.34402 82.2751 6.38402Z" fill="black"/>
<path d="M85.1215 8.75202C85.1215 10.96 85.6655 12.064 87.9055 12.064C88.3535 12.064 88.8175 12 88.8175 11.456C88.8175 10.944 88.3535 10.88 87.9855 10.88C87.8895 10.88 87.7775 10.896 87.6815 10.896C86.5295 10.896 86.3695 10.288 86.3695 8.64002V5.45602H88.0335C88.3535 5.45602 88.6095 5.20002 88.6095 4.86402C88.6095 4.52802 88.3535 4.27202 88.0335 4.27202H86.3695V2.06402C86.3695 1.72802 86.1455 1.45602 85.7455 1.45602C85.3455 1.45602 85.1215 1.72802 85.1215 2.06402V8.75202Z" fill="black"/>
<path d="M94.2301 7.50402C93.7341 7.36002 93.1901 7.28002 92.6141 7.28002C90.7261 7.28002 89.7981 8.08002 89.7981 9.64802V9.71202C89.7981 11.152 90.5981 12.128 92.2461 12.128C93.1101 12.128 93.8301 11.84 94.4381 11.28C94.6781 11.776 95.1101 12.08 95.6381 12.08C95.9901 12.08 96.3581 11.936 96.3581 11.536C96.3581 11.264 96.1981 10.992 95.8941 10.992C95.8301 10.992 95.8141 11.008 95.7661 11.008C95.5741 11.008 95.4781 10.848 95.4781 10.528V7.00802C95.4781 4.89602 94.6781 3.77602 92.6781 3.77602C91.5741 3.77602 90.3741 4.08002 90.4381 4.81602C90.4541 5.05602 90.5821 5.34402 90.8861 5.34402C91.0621 5.34402 91.2541 5.23202 91.3021 5.21602C91.6541 5.02402 91.9581 4.88002 92.5181 4.88002C93.6701 4.88002 94.2301 5.42402 94.2301 6.59202V7.50402ZM92.5981 8.33602C93.0781 8.33602 93.7021 8.41602 94.2301 8.57602V10.304C93.6701 10.784 93.1261 11.008 92.4381 11.008C91.3661 11.008 91.0301 10.48 91.0301 9.72802V9.66402C91.0301 8.94402 91.2861 8.33602 92.5981 8.33602Z" fill="black"/>
<path d="M104.026 5.66402C104.474 5.16802 105.05 4.86402 105.85 4.86402C106.922 4.86402 107.386 5.39202 107.386 6.27202V9.28002C107.386 10.336 106.858 10.976 105.706 10.976C104.666 10.976 104.026 10.464 104.026 9.60002V5.66402ZM102.778 9.60002C102.778 11.008 103.85 12.128 105.706 12.128C107.658 12.128 108.634 10.88 108.634 9.28002V6.27202C108.634 4.86402 107.978 3.77602 106.154 3.77602C105.29 3.77602 104.618 4.01602 104.026 4.43202V1.00802C104.026 0.688016 103.802 0.400016 103.402 0.400016C103.002 0.400016 102.778 0.688016 102.778 1.00802V9.60002Z" fill="black"/>
<path d="M115.663 14.496C115.663 14.272 115.471 14.064 115.231 14.064C115.055 14.064 114.943 14.144 114.559 14.144C114.079 14.144 113.855 13.824 113.855 13.424C113.855 12.96 113.951 12.24 114.463 11.936C114.975 11.632 115.519 11.504 115.519 11.088C115.519 10.8 115.279 10.528 114.959 10.528C114.847 10.528 114.767 10.56 114.735 10.576C114.175 10.832 113.743 11.024 113.071 11.024C111.919 11.024 111.327 10.448 111.327 9.55202V8.60802C111.887 8.70402 112.479 8.75202 112.959 8.75202C114.863 8.75202 115.663 7.85602 115.663 6.38402C115.663 4.80002 114.783 3.77602 113.007 3.77602C111.103 3.77602 110.079 4.94402 110.079 6.48002V9.47202C110.079 10.976 111.119 12.128 112.927 12.128C113.039 12.128 113.167 12.112 113.311 12.112C112.975 12.592 112.783 13.152 112.783 13.68C112.783 14.672 113.439 15.12 114.431 15.12C114.927 15.12 115.663 15.04 115.663 14.496ZM114.431 6.38402C114.431 7.04002 114.223 7.69602 113.007 7.69602C112.687 7.69602 111.919 7.66402 111.327 7.58402V6.36802C111.327 5.47202 111.935 4.91202 112.975 4.91202C113.903 4.91202 114.431 5.34402 114.431 6.38402Z" fill="black"/>
<path d="M119.704 3.84002C117.672 3.84002 117.032 5.16802 117.032 7.07202V9.10402C117.032 10.896 117.896 12.128 119.576 12.128C120.376 12.128 121.144 11.856 121.848 11.504C122.04 11.808 122.328 12.016 122.696 12.016C122.968 12.016 123.256 11.792 123.256 11.456C123.256 11.312 123.208 11.232 123.144 11.136C122.824 10.896 122.728 10.624 122.728 10.176V1.00802C122.728 0.672016 122.504 0.400016 122.104 0.400016C121.704 0.400016 121.48 0.672016 121.48 1.00802V4.14402C120.904 3.95202 120.232 3.84002 119.704 3.84002ZM121.48 10.176C121.48 10.288 121.48 10.416 121.512 10.544C120.968 10.832 120.344 11.008 119.832 11.008C118.776 11.008 118.28 10.352 118.28 9.10402V7.07202C118.28 5.58402 118.696 4.92802 119.864 4.92802C120.248 4.92802 120.952 5.04002 121.48 5.26402V10.176Z" fill="black"/>
<path d="M132.132 14.496C132.132 14.272 131.94 14.064 131.7 14.064C131.524 14.064 131.412 14.144 131.028 14.144C130.548 14.144 130.324 13.824 130.324 13.424C130.324 12.976 130.484 12.336 130.82 12C130.964 11.872 131.124 11.776 131.124 11.536C131.124 11.264 130.964 10.992 130.66 10.992C130.596 10.992 130.58 11.008 130.532 11.008C130.34 11.008 130.244 10.848 130.244 10.528V7.00802C130.244 4.89602 129.444 3.77602 127.444 3.77602C126.34 3.77602 125.14 4.08002 125.204 4.81602C125.22 5.05602 125.348 5.34402 125.652 5.34402C125.828 5.34402 126.02 5.23202 126.068 5.21602C126.42 5.02402 126.724 4.88002 127.284 4.88002C128.436 4.88002 128.996 5.42402 128.996 6.59202V7.50402C128.5 7.36002 127.956 7.28002 127.38 7.28002C125.492 7.28002 124.564 8.08002 124.564 9.64802V9.71202C124.564 11.152 125.364 12.128 127.012 12.128C127.876 12.128 128.596 11.84 129.204 11.28C129.364 11.616 129.604 11.856 129.908 11.984C129.508 12.512 129.252 13.12 129.252 13.68C129.252 14.672 129.908 15.12 130.9 15.12C131.396 15.12 132.132 15.04 132.132 14.496ZM127.364 8.33602C127.844 8.33602 128.468 8.41602 128.996 8.57602V10.304C128.436 10.784 127.892 11.008 127.204 11.008C126.132 11.008 125.796 10.48 125.796 9.72802V9.66402C125.796 8.94402 126.052 8.33602 127.364 8.33602Z" fill="black"/>
<path d="M140.071 12.128C142.023 12.128 143.063 10.88 143.063 9.28002V6.60802C143.063 5.00802 142.023 3.76002 140.071 3.76002C138.119 3.76002 137.079 5.00802 137.079 6.60802V9.28002C137.079 10.88 138.119 12.128 140.071 12.128ZM140.071 10.976C138.919 10.976 138.327 10.336 138.327 9.28002V6.59202C138.327 5.55202 138.919 4.91202 140.071 4.91202C141.223 4.91202 141.815 5.55202 141.815 6.59202V9.28002C141.815 10.336 141.223 10.976 140.071 10.976Z" fill="black"/>
<path d="M147.173 3.84002C145.141 3.84002 144.501 5.16802 144.501 7.07202V9.10402C144.501 10.896 145.365 12.128 147.045 12.128C147.845 12.128 148.613 11.856 149.317 11.504C149.509 11.808 149.797 12.016 150.165 12.016C150.437 12.016 150.725 11.792 150.725 11.456C150.725 11.312 150.677 11.232 150.613 11.136C150.293 10.896 150.197 10.624 150.197 10.176V1.00802C150.197 0.672016 149.973 0.400016 149.573 0.400016C149.173 0.400016 148.949 0.672016 148.949 1.00802V4.14402C148.373 3.95202 147.701 3.84002 147.173 3.84002ZM148.949 10.176C148.949 10.288 148.949 10.416 148.981 10.544C148.437 10.832 147.813 11.008 147.301 11.008C146.245 11.008 145.749 10.352 145.749 9.10402V7.07202C145.749 5.58402 146.165 4.92802 147.333 4.92802C147.717 4.92802 148.421 5.04002 148.949 5.26402V10.176Z" fill="black"/>
<path d="M152.314 9.18402C152.314 10.832 153.178 12.128 155.178 12.128C155.93 12.128 157.402 11.904 157.402 11.152C157.402 10.864 157.162 10.608 156.858 10.608C156.778 10.608 156.698 10.624 156.602 10.656C156.218 10.848 155.866 11.024 155.306 11.024C154.058 11.024 153.562 10.352 153.562 9.18402V6.76802C153.562 5.60002 154.058 4.92802 155.306 4.92802C155.866 4.92802 156.218 5.10402 156.602 5.29602C156.698 5.32802 156.778 5.34402 156.858 5.34402C157.162 5.34402 157.402 5.08802 157.402 4.80002C157.402 4.04802 155.93 3.82402 155.178 3.82402C153.178 3.82402 152.314 5.12002 152.314 6.76802V9.18402Z" fill="black"/>
<path d="M160.595 1.31202C160.595 0.880015 160.259 0.544016 159.827 0.544016C159.395 0.544016 159.059 0.880015 159.059 1.31202C159.059 1.72802 159.395 2.08002 159.827 2.08002C160.259 2.08002 160.595 1.72802 160.595 1.31202ZM160.451 11.504V4.44802C160.451 4.11202 160.179 3.82402 159.827 3.82402C159.475 3.82402 159.203 4.11202 159.203 4.44802V11.504C159.203 11.856 159.475 12.128 159.827 12.128C160.179 12.128 160.451 11.856 160.451 11.504Z" fill="black"/>
<path d="M168.101 14.496C168.101 14.272 167.909 14.064 167.669 14.064C167.493 14.064 167.381 14.144 166.997 14.144C166.517 14.144 166.293 13.824 166.293 13.424C166.293 12.96 166.389 12.24 166.901 11.936C167.413 11.632 167.957 11.504 167.957 11.088C167.957 10.8 167.717 10.528 167.397 10.528C167.285 10.528 167.205 10.56 167.173 10.576C166.613 10.832 166.181 11.024 165.509 11.024C164.357 11.024 163.765 10.448 163.765 9.55202V8.60802C164.325 8.70402 164.917 8.75202 165.397 8.75202C167.301 8.75202 168.101 7.85602 168.101 6.38402C168.101 4.80002 167.221 3.77602 165.445 3.77602C163.541 3.77602 162.517 4.94402 162.517 6.48002V9.47202C162.517 10.976 163.557 12.128 165.365 12.128C165.477 12.128 165.605 12.112 165.749 12.112C165.413 12.592 165.221 13.152 165.221 13.68C165.221 14.672 165.877 15.12 166.869 15.12C167.365 15.12 168.101 15.04 168.101 14.496ZM166.869 6.38402C166.869 7.04002 166.661 7.69602 165.445 7.69602C165.125 7.69602 164.357 7.66402 163.765 7.58402V6.36802C163.765 5.47202 164.373 4.91202 165.413 4.91202C166.341 4.91202 166.869 5.34402 166.869 6.38402Z" fill="black"/>
<path d="M169.47 9.18402C169.47 10.832 170.334 12.128 172.334 12.128C173.086 12.128 174.558 11.904 174.558 11.152C174.558 10.864 174.318 10.608 174.014 10.608C173.934 10.608 173.854 10.624 173.758 10.656C173.374 10.848 173.022 11.024 172.462 11.024C171.214 11.024 170.718 10.352 170.718 9.18402V6.76802C170.718 5.60002 171.214 4.92802 172.462 4.92802C173.022 4.92802 173.374 5.10402 173.758 5.29602C173.854 5.32802 173.934 5.34402 174.014 5.34402C174.318 5.34402 174.558 5.08802 174.558 4.80002C174.558 4.04802 173.086 3.82402 172.334 3.82402C170.334 3.82402 169.47 5.12002 169.47 6.76802V9.18402Z" fill="black"/>
<path d="M177.751 1.31202C177.751 0.880015 177.415 0.544016 176.983 0.544016C176.551 0.544016 176.215 0.880015 176.215 1.31202C176.215 1.72802 176.551 2.08002 176.983 2.08002C177.415 2.08002 177.751 1.72802 177.751 1.31202ZM177.607 11.504V4.44802C177.607 4.11202 177.335 3.82402 176.983 3.82402C176.631 3.82402 176.359 4.11202 176.359 4.44802V11.504C176.359 11.856 176.631 12.128 176.983 12.128C177.335 12.128 177.607 11.856 177.607 11.504Z" fill="black"/>
<path d="M182.665 11.024C181.513 11.024 180.921 10.448 180.921 9.55202V8.60802C181.481 8.70402 182.073 8.75202 182.553 8.75202C184.457 8.75202 185.257 7.85602 185.257 6.38402C185.257 4.80002 184.377 3.77602 182.601 3.77602C180.697 3.77602 179.673 4.94402 179.673 6.48002V9.47202C179.673 10.976 180.713 12.128 182.521 12.128C183.385 12.128 185.113 11.872 185.113 11.088C185.113 10.8 184.873 10.528 184.553 10.528C184.441 10.528 184.361 10.56 184.329 10.576C183.769 10.832 183.337 11.024 182.665 11.024ZM184.025 6.38402C184.025 7.04002 183.817 7.69602 182.601 7.69602C182.281 7.69602 181.513 7.66402 180.921 7.58402V6.36802C180.921 5.47202 181.529 4.91202 182.569 4.91202C183.497 4.91202 184.025 5.34402 184.025 6.38402Z" fill="black"/>
<path d="M195.906 11.504C195.906 11.84 196.114 12.112 196.53 12.112C196.946 12.112 197.154 11.84 197.154 11.504V6.49602C197.154 4.88002 196.21 3.77602 194.482 3.77602C193.586 3.77602 192.834 4.08002 192.162 4.59202C191.762 4.06402 191.186 3.77602 190.306 3.77602C189.474 3.77602 188.674 4.04802 187.97 4.49602C187.81 4.24002 187.602 4.06402 187.33 4.06402C186.994 4.06402 186.738 4.30402 186.738 4.62402C186.738 4.78402 186.818 4.88002 186.85 4.94402C186.994 5.18402 187.138 5.18402 187.138 6.06402V11.504C187.138 11.84 187.346 12.112 187.762 12.112C188.178 12.112 188.386 11.84 188.386 11.504V6.06402C188.386 5.92002 188.37 5.76002 188.338 5.56802C188.786 5.23202 189.49 4.92802 190.194 4.92802C191.33 4.92802 191.522 5.72802 191.522 6.86402V11.504C191.522 11.84 191.73 12.112 192.146 12.112C192.562 12.112 192.77 11.84 192.77 11.504V6.49602C192.77 6.24002 192.738 6.00002 192.69 5.77602C193.074 5.29602 193.762 4.92802 194.45 4.92802C195.426 4.92802 195.906 5.63202 195.906 6.52802V11.504Z" fill="black"/>
<path d="M3.71197 36.128C5.66397 36.128 6.70397 34.88 6.70397 33.28V30.608C6.70397 29.008 5.66397 27.76 3.71197 27.76C1.75997 27.76 0.719971 29.008 0.719971 30.608V33.28C0.719971 34.88 1.75997 36.128 3.71197 36.128ZM3.71197 34.976C2.55997 34.976 1.96797 34.336 1.96797 33.28V30.592C1.96797 29.552 2.55997 28.912 3.71197 28.912C4.86397 28.912 5.45597 29.552 5.45597 30.592V33.28C5.45597 34.336 4.86397 34.976 3.71197 34.976Z" fill="black"/>
<path d="M10.8138 27.84C8.78185 27.84 8.14185 29.168 8.14185 31.072V33.104C8.14185 34.896 9.00585 36.128 10.6858 36.128C11.4858 36.128 12.2538 35.856 12.9578 35.504C13.1498 35.808 13.4378 36.016 13.8058 36.016C14.0778 36.016 14.3658 35.792 14.3658 35.456C14.3658 35.312 14.3178 35.232 14.2538 35.136C13.9338 34.896 13.8378 34.624 13.8378 34.176V25.008C13.8378 24.672 13.6138 24.4 13.2138 24.4C12.8138 24.4 12.5898 24.672 12.5898 25.008V28.144C12.0138 27.952 11.3418 27.84 10.8138 27.84ZM12.5898 34.176C12.5898 34.288 12.5898 34.416 12.6218 34.544C12.0778 34.832 11.4538 35.008 10.9418 35.008C9.88585 35.008 9.38985 34.352 9.38985 33.104V31.072C9.38985 29.584 9.80585 28.928 10.9738 28.928C11.3578 28.928 12.0618 29.04 12.5898 29.264V34.176Z" fill="black"/>
<path d="M30.0952 28.56C30.0952 28.528 30.1112 28.48 30.1112 28.448C30.1112 28.096 29.8232 27.824 29.5032 27.824C29.2312 27.824 28.9912 28.016 28.9272 28.272L27.4392 34.16C26.9432 32.224 26.4472 30.336 25.9832 28.384C25.9032 28.064 25.6632 27.824 25.2952 27.824C24.9112 27.824 24.6552 28.064 24.5752 28.384C24.0952 30.336 23.6312 32.224 23.1352 34.16L21.6312 28.272C21.5512 27.984 21.3112 27.824 21.0552 27.824C20.7032 27.824 20.4312 28.112 20.4312 28.416C20.4312 28.448 20.4312 28.48 20.4472 28.512L22.3032 35.408C22.4312 35.856 22.6712 36.128 23.1032 36.128C23.5032 36.128 23.7432 35.968 23.8552 35.584L25.2792 29.968L26.7192 35.584C26.8152 35.936 27.1192 36.128 27.4552 36.128C27.9192 36.128 28.1112 35.888 28.2552 35.408L30.0952 28.56Z" fill="black"/>
<path d="M31.3011 30.08C31.3011 32.192 33.4291 32.304 34.4371 32.848C34.7571 33.024 35.0291 33.264 35.0291 33.84C35.0291 34.672 34.4371 35.024 33.5571 35.024C32.9171 35.024 32.4051 34.832 31.9571 34.656C31.9091 34.64 31.8931 34.624 31.7971 34.624C31.4131 34.624 31.2051 34.928 31.2051 35.2C31.2051 35.936 32.7411 36.128 33.5571 36.128C35.3331 36.128 36.2451 35.232 36.2451 33.792C36.2451 31.712 34.3731 31.568 33.2691 31.024C32.7251 30.752 32.5171 30.496 32.5171 30C32.5171 29.264 32.9651 28.88 33.9411 28.88C34.5171 28.88 34.8211 29.008 35.1571 29.168C35.2531 29.216 35.3331 29.248 35.4451 29.248C35.7811 29.248 36.0211 28.976 36.0211 28.672C36.0211 28 34.7251 27.776 33.8931 27.776C32.1971 27.776 31.3011 28.704 31.3011 30.08Z" fill="black"/>
<path d="M42.9345 28.56C42.9345 28.16 42.6305 27.92 42.2785 27.92H38.0385C37.7185 27.92 37.4625 28.16 37.4625 28.496C37.4625 28.816 37.7185 29.072 38.0385 29.072H41.3825L37.4145 34.928C37.3345 35.056 37.3025 35.2 37.3025 35.328C37.3025 35.712 37.6065 36 37.9425 36H42.3745C42.7105 36 42.9665 35.744 42.9665 35.424C42.9665 35.104 42.7105 34.848 42.3745 34.848H38.8385L42.7905 29.008C42.8865 28.864 42.9345 28.704 42.9345 28.56Z" fill="black"/>
<path d="M50.0395 28.64C50.0555 28.576 50.0715 28.512 50.0715 28.448C50.0715 28.08 49.7675 27.824 49.4475 27.824C49.2075 27.824 48.9675 27.968 48.8715 28.24L47.1275 34.304L45.1275 28.24C45.0315 27.968 44.8075 27.824 44.5675 27.824C44.2155 27.824 43.9435 28.064 43.9435 28.4C43.9435 28.464 43.9435 28.576 43.9755 28.624L46.5195 35.968C46.0395 37.456 45.5915 38 44.5835 38.048C44.2155 38.064 43.9915 38.352 43.9915 38.64C43.9915 38.992 44.2635 39.248 44.6315 39.248C46.7115 39.2 47.3195 37.488 48.0875 34.992L50.0395 28.64Z" fill="black"/>
<path d="M51.1292 30.08C51.1292 32.192 53.2572 32.304 54.2652 32.848C54.5852 33.024 54.8572 33.264 54.8572 33.84C54.8572 34.672 54.2652 35.024 53.3852 35.024C52.7452 35.024 52.2332 34.832 51.7852 34.656C51.7372 34.64 51.7212 34.624 51.6252 34.624C51.2412 34.624 51.0332 34.928 51.0332 35.2C51.0332 35.936 52.5692 36.128 53.3852 36.128C55.1612 36.128 56.0732 35.232 56.0732 33.792C56.0732 31.712 54.2012 31.568 53.0972 31.024C52.5532 30.752 52.3452 30.496 52.3452 30C52.3452 29.264 52.7932 28.88 53.7692 28.88C54.3452 28.88 54.6492 29.008 54.9852 29.168C55.0812 29.216 55.1612 29.248 55.2732 29.248C55.6092 29.248 55.8492 28.976 55.8492 28.672C55.8492 28 54.5532 27.776 53.7212 27.776C52.0252 27.776 51.1292 28.704 51.1292 30.08Z" fill="black"/>
<path d="M57.7152 32.752C57.7152 34.96 58.2592 36.064 60.4992 36.064C60.9472 36.064 61.4112 36 61.4112 35.456C61.4112 34.944 60.9472 34.88 60.5792 34.88C60.4832 34.88 60.3712 34.896 60.2752 34.896C59.1232 34.896 58.9632 34.288 58.9632 32.64V29.456H60.6272C60.9472 29.456 61.2032 29.2 61.2032 28.864C61.2032 28.528 60.9472 28.272 60.6272 28.272H58.9632V26.064C58.9632 25.728 58.7392 25.456 58.3392 25.456C57.9392 25.456 57.7152 25.728 57.7152 26.064V32.752Z" fill="black"/>
<path d="M64.1038 25.024C64.1038 24.672 63.8318 24.4 63.4798 24.4C63.1278 24.4 62.8558 24.672 62.8558 25.024V35.504C62.8558 35.856 63.1278 36.128 63.4798 36.128C63.8318 36.128 64.1038 35.856 64.1038 35.504V32.64L64.6798 32.048L67.1598 35.824C67.2878 36.032 67.4638 36.128 67.6718 36.128C67.9918 36.128 68.2478 35.92 68.2638 35.6C68.2638 35.488 68.2318 35.328 68.1678 35.232L65.4638 31.232L67.8158 28.832C67.9278 28.72 67.9758 28.576 67.9758 28.416C67.9758 28.096 67.7198 27.84 67.3838 27.84C67.2398 27.84 67.0798 27.888 66.9998 27.984L64.1038 30.992V25.024Z" fill="black"/>
<path d="M71.2512 25.312C71.2512 24.88 70.9152 24.544 70.4832 24.544C70.0512 24.544 69.7152 24.88 69.7152 25.312C69.7152 25.728 70.0512 26.08 70.4832 26.08C70.9152 26.08 71.2512 25.728 71.2512 25.312ZM71.1072 35.504V28.448C71.1072 28.112 70.8352 27.824 70.4832 27.824C70.1312 27.824 69.8592 28.112 69.8592 28.448V35.504C69.8592 35.856 70.1312 36.128 70.4832 36.128C70.8352 36.128 71.1072 35.856 71.1072 35.504Z" fill="black"/>
<path d="M76.1651 35.024C75.0131 35.024 74.4211 34.448 74.4211 33.552V32.608C74.9811 32.704 75.5731 32.752 76.0531 32.752C77.9571 32.752 78.7571 31.856 78.7571 30.384C78.7571 28.8 77.8771 27.776 76.1011 27.776C74.1971 27.776 73.1731 28.944 73.1731 30.48V33.472C73.1731 34.976 74.2131 36.128 76.0211 36.128C76.8851 36.128 78.6131 35.872 78.6131 35.088C78.6131 34.8 78.3731 34.528 78.0531 34.528C77.9411 34.528 77.8611 34.56 77.8291 34.576C77.2691 34.832 76.8371 35.024 76.1651 35.024ZM77.5251 30.384C77.5251 31.04 77.3171 31.696 76.1011 31.696C75.7811 31.696 75.0131 31.664 74.4211 31.584V30.368C74.4211 29.472 75.0291 28.912 76.0691 28.912C76.9971 28.912 77.5251 29.344 77.5251 30.384Z" fill="black"/>
<path d="M83.071 27.776C81.151 27.776 80.207 29.04 80.207 30.704C80.207 31.648 80.511 32.432 81.071 32.96C80.591 33.392 80.463 33.888 80.463 34.272C80.463 34.64 80.575 35.136 80.943 35.504C80.399 36.032 80.095 36.64 80.095 37.424C80.095 38.976 81.359 39.888 83.167 39.888C85.055 39.888 86.447 38.896 86.447 37.28C86.447 35.68 85.071 34.928 83.247 34.928H82.575C82.223 34.928 81.711 34.784 81.711 34.224C81.711 34.032 81.759 33.76 81.903 33.488C82.271 33.632 82.687 33.696 83.167 33.696C85.087 33.696 86.063 32.448 86.063 30.816V29.824C86.063 29.04 86.319 28.864 86.927 28.272C86.975 28.224 87.039 28.112 87.039 27.952C87.039 27.632 86.783 27.392 86.447 27.392C86.095 27.392 85.519 27.664 85.167 28.32C84.559 27.968 83.807 27.776 83.071 27.776ZM84.815 29.84V30.848C84.815 31.904 84.303 32.544 83.167 32.544C81.967 32.544 81.455 31.824 81.455 30.736C81.455 29.552 82.047 28.896 83.231 28.896C83.823 28.896 84.351 29.072 84.847 29.376C84.831 29.52 84.815 29.68 84.815 29.84ZM82.607 36.08H83.279C84.559 36.08 85.199 36.464 85.199 37.312C85.199 38.272 84.351 38.736 83.199 38.736C81.967 38.736 81.343 38.208 81.343 37.248C81.343 36.736 81.503 36.336 81.887 36C82.095 36.048 82.335 36.08 82.607 36.08Z" fill="black"/>
<path d="M90.7901 36.128C92.7421 36.128 93.7821 34.88 93.7821 33.28V30.608C93.7821 29.008 92.7421 27.76 90.7901 27.76C88.8381 27.76 87.7981 29.008 87.7981 30.608V33.28C87.7981 34.88 88.8381 36.128 90.7901 36.128ZM90.7901 34.976C89.6381 34.976 89.0461 34.336 89.0461 33.28V30.592C89.0461 29.552 89.6381 28.912 90.7901 28.912C91.9421 28.912 92.5341 29.552 92.5341 30.592V33.28C92.5341 34.336 91.9421 34.976 90.7901 34.976Z" fill="black"/>
<path d="M96.938 35.28C96.938 34.816 96.554 34.432 96.09 34.432C95.61 34.432 95.226 34.816 95.226 35.28C95.226 35.744 95.562 36.112 96.01 36.16C95.818 36.832 95.418 37.12 95.418 37.632C95.418 37.84 95.562 37.904 95.722 37.904C96.154 37.904 96.938 36.352 96.938 35.28Z" fill="black"/>
<path d="M103.454 33.184C103.454 34.832 104.318 36.128 106.318 36.128C107.07 36.128 108.542 35.904 108.542 35.152C108.542 34.864 108.302 34.608 107.998 34.608C107.918 34.608 107.838 34.624 107.742 34.656C107.358 34.848 107.006 35.024 106.446 35.024C105.198 35.024 104.702 34.352 104.702 33.184V30.768C104.702 29.6 105.198 28.928 106.446 28.928C107.006 28.928 107.358 29.104 107.742 29.296C107.838 29.328 107.918 29.344 107.998 29.344C108.302 29.344 108.542 29.088 108.542 28.8C108.542 28.048 107.07 27.824 106.318 27.824C104.318 27.824 103.454 29.12 103.454 30.768V33.184Z" fill="black"/>
<path d="M112.649 36.128C114.601 36.128 115.641 34.88 115.641 33.28V30.608C115.641 29.008 114.601 27.76 112.649 27.76C110.697 27.76 109.657 29.008 109.657 30.608V33.28C109.657 34.88 110.697 36.128 112.649 36.128ZM112.649 34.976C111.497 34.976 110.905 34.336 110.905 33.28V30.592C110.905 29.552 111.497 28.912 112.649 28.912C113.801 28.912 114.393 29.552 114.393 30.592V33.28C114.393 34.336 113.801 34.976 112.649 34.976Z" fill="black"/>
<path d="M127.028 28.56C127.028 28.16 126.724 27.92 126.372 27.92H122.132C121.812 27.92 121.556 28.16 121.556 28.496C121.556 28.816 121.812 29.072 122.132 29.072H125.476L121.508 34.928C121.428 35.056 121.396 35.2 121.396 35.328C121.396 35.712 121.7 36 122.036 36H126.468C126.804 36 127.06 35.744 127.06 35.424C127.06 35.104 126.804 34.848 126.468 34.848H122.932L126.884 29.008C126.98 28.864 127.028 28.704 127.028 28.56Z" fill="black"/>
<path d="M129.217 34.496C129.217 35.936 129.825 36.128 130.225 36.128C130.545 36.128 130.801 35.872 130.801 35.552C130.801 35.424 130.737 35.312 130.689 35.248C130.497 35.056 130.465 34.848 130.465 34.496V30.496L132.113 29.408C132.273 29.296 132.369 29.12 132.369 28.944C132.369 28.88 132.353 28.816 132.337 28.752C132.257 28.512 132.033 28.352 131.809 28.352C131.601 28.352 131.489 28.416 131.345 28.512L130.465 29.088V25.024C130.465 24.672 130.193 24.4 129.841 24.4C129.489 24.4 129.217 24.688 129.217 25.024V29.92L127.809 30.832C127.633 30.944 127.537 31.136 127.537 31.312C127.537 31.728 127.857 31.92 128.193 31.92C128.321 31.92 128.449 31.824 128.561 31.744L129.217 31.312V34.496Z" fill="black"/>
<path d="M136.399 35.024C135.247 35.024 134.655 34.448 134.655 33.552V32.608C135.215 32.704 135.807 32.752 136.287 32.752C138.191 32.752 138.991 31.856 138.991 30.384C138.991 28.8 138.111 27.776 136.335 27.776C134.431 27.776 133.407 28.944 133.407 30.48V33.472C133.407 34.976 134.447 36.128 136.255 36.128C137.119 36.128 138.847 35.872 138.847 35.088C138.847 34.8 138.607 34.528 138.287 34.528C138.175 34.528 138.095 34.56 138.063 34.576C137.503 34.832 137.071 35.024 136.399 35.024ZM137.759 30.384C137.759 31.04 137.551 31.696 136.335 31.696C136.015 31.696 135.247 31.664 134.655 31.584V30.368C134.655 29.472 135.263 28.912 136.303 28.912C137.231 28.912 137.759 29.344 137.759 30.384Z" fill="black"/>
<path d="M147.829 27.84C145.797 27.84 145.157 29.168 145.157 31.072V33.104C145.157 34.896 146.021 36.128 147.701 36.128C148.501 36.128 149.269 35.856 149.973 35.504C150.165 35.808 150.453 36.016 150.821 36.016C151.093 36.016 151.381 35.792 151.381 35.456C151.381 35.312 151.333 35.232 151.269 35.136C150.949 34.896 150.853 34.624 150.853 34.176V25.008C150.853 24.672 150.629 24.4 150.229 24.4C149.829 24.4 149.605 24.672 149.605 25.008V28.144C149.029 27.952 148.357 27.84 147.829 27.84ZM149.605 34.176C149.605 34.288 149.605 34.416 149.637 34.544C149.093 34.832 148.469 35.008 147.957 35.008C146.901 35.008 146.405 34.352 146.405 33.104V31.072C146.405 29.584 146.821 28.928 147.989 28.928C148.373 28.928 149.077 29.04 149.605 29.264V34.176Z" fill="black"/>
<path d="M155.962 36.128C157.914 36.128 158.954 34.88 158.954 33.28V30.608C158.954 29.008 157.914 27.76 155.962 27.76C154.01 27.76 152.97 29.008 152.97 30.608V33.28C152.97 34.88 154.01 36.128 155.962 36.128ZM155.962 34.976C154.81 34.976 154.218 34.336 154.218 33.28V30.592C154.218 29.552 154.81 28.912 155.962 28.912C157.114 28.912 157.706 29.552 157.706 30.592V33.28C157.706 34.336 157.114 34.976 155.962 34.976Z" fill="black"/>
<path d="M163.384 36.128C165.336 36.128 166.376 34.88 166.376 33.28V30.608C166.376 29.008 165.336 27.76 163.384 27.76C161.432 27.76 160.392 29.008 160.392 30.608V33.28C160.392 34.88 161.432 36.128 163.384 36.128ZM163.384 34.976C162.232 34.976 161.64 34.336 161.64 33.28V30.592C161.64 29.552 162.232 28.912 163.384 28.912C164.536 28.912 165.128 29.552 165.128 30.592V33.28C165.128 34.336 164.536 34.976 163.384 34.976Z" fill="black"/>
<path d="M169.526 25.024C169.526 24.672 169.254 24.4 168.902 24.4C168.55 24.4 168.278 24.672 168.278 25.024V35.504C168.278 35.856 168.55 36.128 168.902 36.128C169.254 36.128 169.526 35.856 169.526 35.504V32.64L170.102 32.048L172.582 35.824C172.71 36.032 172.886 36.128 173.094 36.128C173.414 36.128 173.67 35.92 173.686 35.6C173.686 35.488 173.654 35.328 173.59 35.232L170.886 31.232L173.238 28.832C173.35 28.72 173.398 28.576 173.398 28.416C173.398 28.096 173.142 27.84 172.806 27.84C172.662 27.84 172.502 27.888 172.422 27.984L169.526 30.992V25.024Z" fill="black"/>
<path d="M177.649 36.128C179.601 36.128 180.641 34.88 180.641 33.28V30.608C180.641 29.008 179.601 27.76 177.649 27.76C175.697 27.76 174.657 29.008 174.657 30.608V33.28C174.657 34.88 175.697 36.128 177.649 36.128ZM177.649 34.976C176.497 34.976 175.905 34.336 175.905 33.28V30.592C175.905 29.552 176.497 28.912 177.649 28.912C178.801 28.912 179.393 29.552 179.393 30.592V33.28C179.393 34.336 178.801 34.976 177.649 34.976Z" fill="black"/>
<path d="M183.279 34.496C183.279 35.936 183.887 36.128 184.287 36.128C184.607 36.128 184.863 35.872 184.863 35.552C184.863 35.424 184.799 35.312 184.751 35.248C184.559 35.056 184.527 34.848 184.527 34.496V30.496L186.175 29.408C186.335 29.296 186.431 29.12 186.431 28.944C186.431 28.88 186.415 28.816 186.399 28.752C186.319 28.512 186.095 28.352 185.871 28.352C185.663 28.352 185.551 28.416 185.407 28.512L184.527 29.088V25.024C184.527 24.672 184.255 24.4 183.903 24.4C183.551 24.4 183.279 24.688 183.279 25.024V29.92L181.871 30.832C181.695 30.944 181.599 31.136 181.599 31.312C181.599 31.728 181.919 31.92 182.255 31.92C182.383 31.92 182.511 31.824 182.623 31.744L183.279 31.312V34.496Z" fill="black"/>
<path d="M191.902 31.504C191.406 31.36 190.862 31.28 190.286 31.28C188.398 31.28 187.47 32.08 187.47 33.648V33.712C187.47 35.152 188.27 36.128 189.918 36.128C190.782 36.128 191.502 35.84 192.11 35.28C192.35 35.776 192.782 36.08 193.31 36.08C193.662 36.08 194.03 35.936 194.03 35.536C194.03 35.264 193.87 34.992 193.566 34.992C193.502 34.992 193.486 35.008 193.438 35.008C193.246 35.008 193.15 34.848 193.15 34.528V31.008C193.15 28.896 192.35 27.776 190.35 27.776C189.246 27.776 188.046 28.08 188.11 28.816C188.126 29.056 188.254 29.344 188.558 29.344C188.734 29.344 188.926 29.232 188.974 29.216C189.326 29.024 189.63 28.88 190.19 28.88C191.342 28.88 191.902 29.424 191.902 30.592V31.504ZM190.27 32.336C190.75 32.336 191.374 32.416 191.902 32.576V34.304C191.342 34.784 190.798 35.008 190.11 35.008C189.038 35.008 188.702 34.48 188.702 33.728V33.664C188.702 32.944 188.958 32.336 190.27 32.336Z" fill="black"/>
<path d="M197.157 35.28C197.157 34.816 196.773 34.432 196.309 34.432C195.829 34.432 195.445 34.816 195.445 35.28C195.445 35.76 195.829 36.16 196.309 36.16C196.773 36.16 197.157 35.76 197.157 35.28Z" fill="black"/>
<path d="M7.71197 60.16C8.12797 60.16 8.41597 59.84 8.41597 59.456V49.216C8.41597 48.864 8.14397 48.56 7.79197 48.56C7.43997 48.56 7.13597 48.864 7.13597 49.216V57.456L2.52797 48.944C2.39997 48.704 2.12797 48.56 1.85597 48.56C1.45597 48.56 1.16797 48.864 1.16797 49.264V59.504C1.16797 59.856 1.43997 60.16 1.79197 60.16C2.14397 60.16 2.44797 59.856 2.44797 59.504V51.264L7.05597 59.792C7.18397 60.016 7.45597 60.16 7.71197 60.16Z" fill="black"/>
<path d="M12.3137 49.312C12.3137 48.88 11.9777 48.544 11.5457 48.544C11.1137 48.544 10.7777 48.88 10.7777 49.312C10.7777 49.728 11.1137 50.08 11.5457 50.08C11.9777 50.08 12.3137 49.728 12.3137 49.312ZM12.1697 59.504V52.448C12.1697 52.112 11.8977 51.824 11.5457 51.824C11.1937 51.824 10.9217 52.112 10.9217 52.448V59.504C10.9217 59.856 11.1937 60.128 11.5457 60.128C11.8977 60.128 12.1697 59.856 12.1697 59.504Z" fill="black"/>
<path d="M17.2276 59.024C16.0756 59.024 15.4836 58.448 15.4836 57.552V56.608C16.0436 56.704 16.6356 56.752 17.1156 56.752C19.0196 56.752 19.8196 55.856 19.8196 54.384C19.8196 52.8 18.9396 51.776 17.1636 51.776C15.2596 51.776 14.2356 52.944 14.2356 54.48V57.472C14.2356 58.976 15.2756 60.128 17.0836 60.128C17.9476 60.128 19.6756 59.872 19.6756 59.088C19.6756 58.8 19.4356 58.528 19.1156 58.528C19.0036 58.528 18.9236 58.56 18.8916 58.576C18.3316 58.832 17.8996 59.024 17.2276 59.024ZM18.5876 54.384C18.5876 55.04 18.3796 55.696 17.1636 55.696C16.8436 55.696 16.0756 55.664 15.4836 55.584V54.368C15.4836 53.472 16.0916 52.912 17.1316 52.912C18.0596 52.912 18.5876 53.344 18.5876 54.384Z" fill="black"/>
<path d="M21.1887 57.184C21.1887 58.832 22.0527 60.128 24.0527 60.128C24.8047 60.128 26.2767 59.904 26.2767 59.152C26.2767 58.864 26.0367 58.608 25.7327 58.608C25.6527 58.608 25.5727 58.624 25.4767 58.656C25.0927 58.848 24.7407 59.024 24.1807 59.024C22.9327 59.024 22.4367 58.352 22.4367 57.184V54.768C22.4367 53.6 22.9327 52.928 24.1807 52.928C24.7407 52.928 25.0927 53.104 25.4767 53.296C25.5727 53.328 25.6527 53.344 25.7327 53.344C26.0367 53.344 26.2767 53.088 26.2767 52.8C26.2767 52.048 24.8047 51.824 24.0527 51.824C22.0527 51.824 21.1887 53.12 21.1887 54.768V57.184Z" fill="black"/>
<path d="M29.041 59.504V53.856C29.505 53.232 30.241 52.944 30.897 52.944C31.889 52.944 32.289 53.472 32.289 54.448V59.504C32.289 59.856 32.561 60.128 32.913 60.128C33.249 60.128 33.537 59.856 33.537 59.504V54.432C33.537 52.88 32.753 51.776 31.041 51.776C30.273 51.776 29.585 52.032 29.041 52.448V48.928C29.041 48.576 28.769 48.304 28.417 48.304C28.065 48.304 27.809 48.608 27.809 48.928V59.504C27.809 59.856 28.081 60.128 28.433 60.128C28.785 60.128 29.041 59.856 29.041 59.504Z" fill="black"/>
<path d="M42.0112 54.064C42.0112 53.936 41.9952 53.776 41.9632 53.6C42.5072 53.184 43.1152 52.928 43.7392 52.928C44.6992 52.928 45.2112 53.616 45.2112 54.832V59.504C45.2112 59.84 45.4352 60.112 45.8352 60.112C46.2352 60.112 46.4592 59.84 46.4592 59.504V54.832C46.4592 53.024 45.6112 51.808 43.9152 51.808C43.1472 51.808 42.3312 52.032 41.6272 52.528C41.4512 52.256 41.2432 52.064 40.9552 52.064C40.6192 52.064 40.3632 52.304 40.3632 52.624C40.3632 52.784 40.4432 52.88 40.4752 52.944C40.6192 53.184 40.7632 53.184 40.7632 54.064V59.504C40.7632 59.84 40.9712 60.112 41.3872 60.112C41.8032 60.112 42.0112 59.84 42.0112 59.504V54.064Z" fill="black"/>
<path d="M52.8238 55.504C52.3278 55.36 51.7838 55.28 51.2078 55.28C49.3198 55.28 48.3918 56.08 48.3918 57.648V57.712C48.3918 59.152 49.1918 60.128 50.8398 60.128C51.7038 60.128 52.4238 59.84 53.0318 59.28C53.2718 59.776 53.7038 60.08 54.2318 60.08C54.5838 60.08 54.9518 59.936 54.9518 59.536C54.9518 59.264 54.7918 58.992 54.4878 58.992C54.4238 58.992 54.4078 59.008 54.3598 59.008C54.1678 59.008 54.0718 58.848 54.0718 58.528V55.008C54.0718 52.896 53.2718 51.776 51.2718 51.776C50.1678 51.776 48.9678 52.08 49.0318 52.816C49.0478 53.056 49.1758 53.344 49.4798 53.344C49.6558 53.344 49.8478 53.232 49.8958 53.216C50.2478 53.024 50.5518 52.88 51.1118 52.88C52.2638 52.88 52.8238 53.424 52.8238 54.592V55.504ZM51.1918 56.336C51.6718 56.336 52.2958 56.416 52.8238 56.576V58.304C52.2638 58.784 51.7198 59.008 51.0318 59.008C49.9598 59.008 49.6238 58.48 49.6238 57.728V57.664C49.6238 56.944 49.8798 56.336 51.1918 56.336Z" fill="black"/>
<path d="M56.3636 54.08C56.3636 56.192 58.4916 56.304 59.4996 56.848C59.8196 57.024 60.0916 57.264 60.0916 57.84C60.0916 58.672 59.4996 59.024 58.6196 59.024C57.9796 59.024 57.4676 58.832 57.0196 58.656C56.9716 58.64 56.9556 58.624 56.8596 58.624C56.4756 58.624 56.2676 58.928 56.2676 59.2C56.2676 59.936 57.8036 60.128 58.6196 60.128C60.3956 60.128 61.3076 59.232 61.3076 57.792C61.3076 55.712 59.4356 55.568 58.3316 55.024C57.7876 54.752 57.5796 54.496 57.5796 54C57.5796 53.264 58.0276 52.88 59.0036 52.88C59.5796 52.88 59.8836 53.008 60.2196 53.168C60.3156 53.216 60.3956 53.248 60.5076 53.248C60.8436 53.248 61.0836 52.976 61.0836 52.672C61.0836 52 59.7876 51.776 58.9556 51.776C57.2596 51.776 56.3636 52.704 56.3636 54.08Z" fill="black"/>
<path d="M68.4926 52.64C68.5086 52.576 68.5246 52.512 68.5246 52.448C68.5246 52.08 68.2206 51.824 67.9006 51.824C67.6606 51.824 67.4206 51.968 67.3246 52.24L65.5806 58.304L63.5806 52.24C63.4846 51.968 63.2606 51.824 63.0206 51.824C62.6686 51.824 62.3966 52.064 62.3966 52.4C62.3966 52.464 62.3966 52.576 62.4286 52.624L64.9726 59.968C64.4926 61.456 64.0446 62 63.0366 62.048C62.6686 62.064 62.4446 62.352 62.4446 62.64C62.4446 62.992 62.7166 63.248 63.0846 63.248C65.1646 63.2 65.7726 61.488 66.5406 58.992L68.4926 52.64Z" fill="black"/>
<path d="M69.4543 57.184C69.4543 58.832 70.3183 60.128 72.3183 60.128C73.0703 60.128 74.5423 59.904 74.5423 59.152C74.5423 58.864 74.3023 58.608 73.9983 58.608C73.9183 58.608 73.8383 58.624 73.7423 58.656C73.3583 58.848 73.0063 59.024 72.4463 59.024C71.1983 59.024 70.7023 58.352 70.7023 57.184V54.768C70.7023 53.6 71.1983 52.928 72.4463 52.928C73.0063 52.928 73.3583 53.104 73.7423 53.296C73.8383 53.328 73.9183 53.344 73.9983 53.344C74.3023 53.344 74.5423 53.088 74.5423 52.8C74.5423 52.048 73.0703 51.824 72.3183 51.824C70.3183 51.824 69.4543 53.12 69.4543 54.768V57.184Z" fill="black"/>
<path d="M83.3036 62.496C83.3036 62.272 83.1116 62.064 82.8716 62.064C82.6956 62.064 82.5836 62.144 82.1996 62.144C81.7196 62.144 81.4956 61.824 81.4956 61.424C81.4956 60.976 81.6556 60.336 81.9916 60C82.1356 59.872 82.2956 59.776 82.2956 59.536C82.2956 59.264 82.1356 58.992 81.8316 58.992C81.7676 58.992 81.7516 59.008 81.7036 59.008C81.5116 59.008 81.4156 58.848 81.4156 58.528V55.008C81.4156 52.896 80.6156 51.776 78.6156 51.776C77.5116 51.776 76.3116 52.08 76.3756 52.816C76.3916 53.056 76.5196 53.344 76.8236 53.344C76.9996 53.344 77.1916 53.232 77.2396 53.216C77.5916 53.024 77.8956 52.88 78.4556 52.88C79.6076 52.88 80.1676 53.424 80.1676 54.592V55.504C79.6716 55.36 79.1276 55.28 78.5516 55.28C76.6636 55.28 75.7356 56.08 75.7356 57.648V57.712C75.7356 59.152 76.5356 60.128 78.1836 60.128C79.0476 60.128 79.7676 59.84 80.3756 59.28C80.5356 59.616 80.7756 59.856 81.0796 59.984C80.6796 60.512 80.4236 61.12 80.4236 61.68C80.4236 62.672 81.0796 63.12 82.0716 63.12C82.5676 63.12 83.3036 63.04 83.3036 62.496ZM78.5356 56.336C79.0156 56.336 79.6396 56.416 80.1676 56.576V58.304C79.6076 58.784 79.0636 59.008 78.3756 59.008C77.3036 59.008 76.9676 58.48 76.9676 57.728V57.664C76.9676 56.944 77.2236 56.336 78.5356 56.336Z" fill="black"/>
<path d="M88.2512 56.064C88.2512 58.528 89.3872 60.144 91.8512 60.144C93.3072 60.144 94.6832 59.52 94.6832 58.768C94.6832 58.464 94.4432 58.208 94.1072 58.208C93.8832 58.208 93.8032 58.32 93.5312 58.48C93.0512 58.816 92.5552 58.976 91.9312 58.976C90.1232 58.976 89.5312 57.856 89.5312 56.064V52.64C89.5312 50.848 90.1232 49.728 91.9312 49.728C92.5552 49.728 93.0512 49.888 93.5312 50.224C93.7872 50.384 93.8832 50.496 94.1072 50.496C94.4432 50.496 94.6832 50.24 94.6832 49.936C94.6832 49.184 93.3072 48.56 91.8512 48.56C89.3872 48.56 88.2512 50.176 88.2512 52.64V56.064Z" fill="black"/>
<path d="M97.97 49.312C97.97 48.88 97.634 48.544 97.202 48.544C96.77 48.544 96.434 48.88 96.434 49.312C96.434 49.728 96.77 50.08 97.202 50.08C97.634 50.08 97.97 49.728 97.97 49.312ZM97.826 59.504V52.448C97.826 52.112 97.554 51.824 97.202 51.824C96.85 51.824 96.578 52.112 96.578 52.448V59.504C96.578 59.856 96.85 60.128 97.202 60.128C97.554 60.128 97.826 59.856 97.826 59.504Z" fill="black"/>
<path d="M105.476 62.496C105.476 62.272 105.284 62.064 105.044 62.064C104.868 62.064 104.756 62.144 104.372 62.144C103.892 62.144 103.668 61.824 103.668 61.424C103.668 60.96 103.764 60.24 104.276 59.936C104.788 59.632 105.332 59.504 105.332 59.088C105.332 58.8 105.092 58.528 104.772 58.528C104.66 58.528 104.58 58.56 104.548 58.576C103.988 58.832 103.556 59.024 102.884 59.024C101.732 59.024 101.14 58.448 101.14 57.552V56.608C101.7 56.704 102.292 56.752 102.772 56.752C104.676 56.752 105.476 55.856 105.476 54.384C105.476 52.8 104.596 51.776 102.82 51.776C100.916 51.776 99.8918 52.944 99.8918 54.48V57.472C99.8918 58.976 100.932 60.128 102.74 60.128C102.852 60.128 102.98 60.112 103.124 60.112C102.788 60.592 102.596 61.152 102.596 61.68C102.596 62.672 103.252 63.12 104.244 63.12C104.74 63.12 105.476 63.04 105.476 62.496ZM104.244 54.384C104.244 55.04 104.036 55.696 102.82 55.696C102.5 55.696 101.732 55.664 101.14 55.584V54.368C101.14 53.472 101.748 52.912 102.788 52.912C103.716 52.912 104.244 53.344 104.244 54.384Z" fill="black"/>
<path d="M111.642 57.184C111.642 58.832 112.506 60.128 114.506 60.128C115.258 60.128 116.73 59.904 116.73 59.152C116.73 58.864 116.49 58.608 116.186 58.608C116.106 58.608 116.026 58.624 115.93 58.656C115.546 58.848 115.194 59.024 114.634 59.024C113.386 59.024 112.89 58.352 112.89 57.184V54.768C112.89 53.6 113.386 52.928 114.634 52.928C115.194 52.928 115.546 53.104 115.93 53.296C116.026 53.328 116.106 53.344 116.186 53.344C116.49 53.344 116.73 53.088 116.73 52.8C116.73 52.048 115.258 51.824 114.506 51.824C112.506 51.824 111.642 53.12 111.642 54.768V57.184Z" fill="black"/>
<path d="M119.923 49.312C119.923 48.88 119.587 48.544 119.155 48.544C118.723 48.544 118.387 48.88 118.387 49.312C118.387 49.728 118.723 50.08 119.155 50.08C119.587 50.08 119.923 49.728 119.923 49.312ZM119.779 59.504V52.448C119.779 52.112 119.507 51.824 119.155 51.824C118.803 51.824 118.531 52.112 118.531 52.448V59.504C118.531 59.856 118.803 60.128 119.155 60.128C119.507 60.128 119.779 59.856 119.779 59.504Z" fill="black"/>
<path d="M124.837 59.024C123.685 59.024 123.093 58.448 123.093 57.552V56.608C123.653 56.704 124.245 56.752 124.725 56.752C126.629 56.752 127.429 55.856 127.429 54.384C127.429 52.8 126.549 51.776 124.773 51.776C122.869 51.776 121.845 52.944 121.845 54.48V57.472C121.845 58.976 122.885 60.128 124.693 60.128C125.557 60.128 127.285 59.872 127.285 59.088C127.285 58.8 127.045 58.528 126.725 58.528C126.613 58.528 126.533 58.56 126.501 58.576C125.941 58.832 125.509 59.024 124.837 59.024ZM126.197 54.384C126.197 55.04 125.989 55.696 124.773 55.696C124.453 55.696 123.685 55.664 123.093 55.584V54.368C123.093 53.472 123.701 52.912 124.741 52.912C125.669 52.912 126.197 53.344 126.197 54.384Z" fill="black"/>
<path d="M132.334 60.112C134.366 60.112 135.006 58.784 135.006 56.88V54.8C135.006 53.008 134.142 51.776 132.462 51.776C131.63 51.776 130.846 52.096 130.126 52.48C129.966 52.256 129.758 52.096 129.502 52.096C129.23 52.096 128.942 52.32 128.942 52.656C128.942 52.8 128.99 52.88 129.054 52.976C129.246 53.264 129.31 53.568 129.31 54.096V62.832C129.31 63.168 129.534 63.44 129.934 63.44C130.334 63.44 130.558 63.168 130.558 62.832V59.808C131.134 60 131.79 60.112 132.334 60.112ZM130.558 54.096C130.558 53.904 130.526 53.68 130.478 53.44C131.022 53.104 131.662 52.896 132.206 52.896C133.262 52.896 133.758 53.552 133.758 54.8V56.88C133.758 58.368 133.342 59.024 132.174 59.024C131.774 59.024 131.07 58.928 130.558 58.688V54.096Z" fill="black"/>
<path d="M137.639 58.496C137.639 59.936 138.247 60.128 138.647 60.128C138.967 60.128 139.223 59.872 139.223 59.552C139.223 59.424 139.159 59.312 139.111 59.248C138.919 59.056 138.887 58.848 138.887 58.496V54.496L140.535 53.408C140.695 53.296 140.791 53.12 140.791 52.944C140.791 52.88 140.775 52.816 140.759 52.752C140.679 52.512 140.455 52.352 140.231 52.352C140.023 52.352 139.911 52.416 139.767 52.512L138.887 53.088V49.024C138.887 48.672 138.615 48.4 138.263 48.4C137.911 48.4 137.639 48.688 137.639 49.024V53.92L136.231 54.832C136.055 54.944 135.959 55.136 135.959 55.312C135.959 55.728 136.279 55.92 136.615 55.92C136.743 55.92 136.871 55.824 136.983 55.744L137.639 55.312V58.496Z" fill="black"/>
<path d="M144.821 59.024C143.669 59.024 143.077 58.448 143.077 57.552V56.608C143.637 56.704 144.229 56.752 144.709 56.752C146.613 56.752 147.413 55.856 147.413 54.384C147.413 52.8 146.533 51.776 144.757 51.776C142.853 51.776 141.829 52.944 141.829 54.48V57.472C141.829 58.976 142.869 60.128 144.677 60.128C145.541 60.128 147.269 59.872 147.269 59.088C147.269 58.8 147.029 58.528 146.709 58.528C146.597 58.528 146.517 58.56 146.485 58.576C145.925 58.832 145.493 59.024 144.821 59.024ZM146.181 54.384C146.181 55.04 145.973 55.696 144.757 55.696C144.437 55.696 143.669 55.664 143.077 55.584V54.368C143.077 53.472 143.685 52.912 144.725 52.912C145.653 52.912 146.181 53.344 146.181 54.384Z" fill="black"/>
<path d="M158.062 59.504C158.062 59.84 158.27 60.112 158.686 60.112C159.102 60.112 159.31 59.84 159.31 59.504V54.496C159.31 52.88 158.366 51.776 156.638 51.776C155.742 51.776 154.99 52.08 154.318 52.592C153.918 52.064 153.342 51.776 152.462 51.776C151.63 51.776 150.83 52.048 150.126 52.496C149.966 52.24 149.758 52.064 149.486 52.064C149.15 52.064 148.894 52.304 148.894 52.624C148.894 52.784 148.974 52.88 149.006 52.944C149.15 53.184 149.294 53.184 149.294 54.064V59.504C149.294 59.84 149.502 60.112 149.918 60.112C150.334 60.112 150.542 59.84 150.542 59.504V54.064C150.542 53.92 150.526 53.76 150.494 53.568C150.942 53.232 151.646 52.928 152.35 52.928C153.486 52.928 153.678 53.728 153.678 54.864V59.504C153.678 59.84 153.886 60.112 154.302 60.112C154.718 60.112 154.926 59.84 154.926 59.504V54.496C154.926 54.24 154.894 54 154.846 53.776C155.23 53.296 155.918 52.928 156.606 52.928C157.582 52.928 158.062 53.632 158.062 54.528V59.504Z" fill="black"/>
<path d="M163.204 59.28C163.204 58.816 162.82 58.432 162.356 58.432C161.876 58.432 161.492 58.816 161.492 59.28C161.492 59.744 161.828 60.112 162.276 60.16C162.084 60.832 161.684 61.12 161.684 61.632C161.684 61.84 161.828 61.904 161.988 61.904C162.42 61.904 163.204 60.352 163.204 59.28Z" fill="black"/>
<path d="M0.847971 78.08C0.847971 80.192 2.97597 80.304 3.98397 80.848C4.30397 81.024 4.57597 81.264 4.57597 81.84C4.57597 82.672 3.98397 83.024 3.10397 83.024C2.46397 83.024 1.95197 82.832 1.50397 82.656C1.45597 82.64 1.43997 82.624 1.34397 82.624C0.959971 82.624 0.751971 82.928 0.751971 83.2C0.751971 83.936 2.28797 84.128 3.10397 84.128C4.87997 84.128 5.79197 83.232 5.79197 81.792C5.79197 79.712 3.91997 79.568 2.81597 79.024C2.27197 78.752 2.06397 78.496 2.06397 78C2.06397 77.264 2.51197 76.88 3.48797 76.88C4.06397 76.88 4.36797 77.008 4.70397 77.168C4.79997 77.216 4.87997 77.248 4.99197 77.248C5.32797 77.248 5.56797 76.976 5.56797 76.672C5.56797 76 4.27197 75.776 3.43997 75.776C1.74397 75.776 0.847971 76.704 0.847971 78.08Z" fill="black"/>
<path d="M10.756 84.112C12.788 84.112 13.428 82.784 13.428 80.88V78.8C13.428 77.008 12.564 75.776 10.884 75.776C10.052 75.776 9.26797 76.096 8.54797 76.48C8.38797 76.256 8.17997 76.096 7.92397 76.096C7.65197 76.096 7.36397 76.32 7.36397 76.656C7.36397 76.8 7.41197 76.88 7.47597 76.976C7.66797 77.264 7.73197 77.568 7.73197 78.096V86.832C7.73197 87.168 7.95597 87.44 8.35597 87.44C8.75597 87.44 8.97997 87.168 8.97997 86.832V83.808C9.55597 84 10.212 84.112 10.756 84.112ZM8.97997 78.096C8.97997 77.904 8.94797 77.68 8.89997 77.44C9.44397 77.104 10.084 76.896 10.628 76.896C11.684 76.896 12.18 77.552 12.18 78.8V80.88C12.18 82.368 11.764 83.024 10.596 83.024C10.196 83.024 9.49197 82.928 8.97997 82.688V78.096Z" fill="black"/>
<path d="M17.8526 84.128C19.8046 84.128 20.8446 82.88 20.8446 81.28V78.608C20.8446 77.008 19.8046 75.76 17.8526 75.76C15.9006 75.76 14.8606 77.008 14.8606 78.608V81.28C14.8606 82.88 15.9006 84.128 17.8526 84.128ZM17.8526 82.976C16.7006 82.976 16.1086 82.336 16.1086 81.28V78.592C16.1086 77.552 16.7006 76.912 17.8526 76.912C19.0046 76.912 19.5966 77.552 19.5966 78.592V81.28C19.5966 82.336 19.0046 82.976 17.8526 82.976Z" fill="black"/>
<path d="M23.9945 73.024C23.9945 72.672 23.7225 72.4 23.3705 72.4C23.0185 72.4 22.7465 72.672 22.7465 73.024V83.504C22.7465 83.856 23.0185 84.128 23.3705 84.128C23.7225 84.128 23.9945 83.856 23.9945 83.504V80.64L24.5705 80.048L27.0505 83.824C27.1785 84.032 27.3545 84.128 27.5625 84.128C27.8825 84.128 28.1385 83.92 28.1545 83.6C28.1545 83.488 28.1225 83.328 28.0585 83.232L25.3545 79.232L27.7065 76.832C27.8185 76.72 27.8665 76.576 27.8665 76.416C27.8665 76.096 27.6105 75.84 27.2745 75.84C27.1305 75.84 26.9705 75.888 26.8905 75.984L23.9945 78.992V73.024Z" fill="black"/>
<path d="M32.1182 84.128C34.0702 84.128 35.1102 82.88 35.1102 81.28V78.608C35.1102 77.008 34.0702 75.76 32.1182 75.76C30.1662 75.76 29.1262 77.008 29.1262 78.608V81.28C29.1262 82.88 30.1662 84.128 32.1182 84.128ZM32.1182 82.976C30.9662 82.976 30.3742 82.336 30.3742 81.28V78.592C30.3742 77.552 30.9662 76.912 32.1182 76.912C33.2702 76.912 33.8622 77.552 33.8622 78.592V81.28C33.8622 82.336 33.2702 82.976 32.1182 82.976Z" fill="black"/>
<path d="M38.4041 76.448C38.4041 76.112 38.1321 75.824 37.7801 75.824C37.4281 75.824 37.1561 76.112 37.1561 76.448V84.304C37.1561 85.472 36.6601 85.952 35.7961 86.144C35.5561 86.192 35.2041 86.4 35.3161 86.832C35.3801 87.088 35.5881 87.248 35.8441 87.248C35.9401 87.248 36.0201 87.248 36.1481 87.232C37.5881 87.024 38.4041 85.92 38.4041 84.24V76.448ZM38.5481 73.312C38.5481 72.88 38.2121 72.544 37.7801 72.544C37.3481 72.544 37.0121 72.88 37.0121 73.312C37.0121 73.728 37.3481 74.08 37.7801 74.08C38.2121 74.08 38.5481 73.728 38.5481 73.312Z" fill="black"/>
<path d="M43.462 83.024C42.31 83.024 41.718 82.448 41.718 81.552V80.608C42.278 80.704 42.87 80.752 43.35 80.752C45.254 80.752 46.054 79.856 46.054 78.384C46.054 76.8 45.174 75.776 43.398 75.776C41.494 75.776 40.47 76.944 40.47 78.48V81.472C40.47 82.976 41.51 84.128 43.318 84.128C44.182 84.128 45.91 83.872 45.91 83.088C45.91 82.8 45.67 82.528 45.35 82.528C45.238 82.528 45.158 82.56 45.126 82.576C44.566 82.832 44.134 83.024 43.462 83.024ZM44.822 78.384C44.822 79.04 44.614 79.696 43.398 79.696C43.078 79.696 42.31 79.664 41.718 79.584V78.368C41.718 77.472 42.326 76.912 43.366 76.912C44.294 76.912 44.822 77.344 44.822 78.384Z" fill="black"/>
<path d="M56.7031 83.504C56.7031 83.84 56.9111 84.112 57.3271 84.112C57.7431 84.112 57.9511 83.84 57.9511 83.504V78.496C57.9511 76.88 57.0071 75.776 55.2791 75.776C54.3831 75.776 53.6311 76.08 52.9591 76.592C52.5591 76.064 51.9831 75.776 51.1031 75.776C50.2711 75.776 49.4711 76.048 48.7671 76.496C48.6071 76.24 48.3991 76.064 48.1271 76.064C47.7911 76.064 47.5351 76.304 47.5351 76.624C47.5351 76.784 47.6151 76.88 47.6471 76.944C47.7911 77.184 47.9351 77.184 47.9351 78.064V83.504C47.9351 83.84 48.1431 84.112 48.5591 84.112C48.9751 84.112 49.1831 83.84 49.1831 83.504V78.064C49.1831 77.92 49.1671 77.76 49.1351 77.568C49.5831 77.232 50.2871 76.928 50.9911 76.928C52.1271 76.928 52.3191 77.728 52.3191 78.864V83.504C52.3191 83.84 52.5271 84.112 52.9431 84.112C53.3591 84.112 53.5671 83.84 53.5671 83.504V78.496C53.5671 78.24 53.5351 78 53.4871 77.776C53.8711 77.296 54.5591 76.928 55.2471 76.928C56.2231 76.928 56.7031 77.632 56.7031 78.528V83.504Z" fill="black"/>
<path d="M66.6731 73.312C66.6731 72.88 66.3371 72.544 65.9051 72.544C65.4731 72.544 65.1371 72.88 65.1371 73.312C65.1371 73.728 65.4731 74.08 65.9051 74.08C66.3371 74.08 66.6731 73.728 66.6731 73.312ZM66.5291 83.504V76.448C66.5291 76.112 66.2571 75.824 65.9051 75.824C65.5531 75.824 65.2811 76.112 65.2811 76.448V83.504C65.2811 83.856 65.5531 84.128 65.9051 84.128C66.2571 84.128 66.5291 83.856 66.5291 83.504Z" fill="black"/>
<path d="M82.6718 83.504C82.6718 83.84 82.8798 84.112 83.2958 84.112C83.7118 84.112 83.9198 83.84 83.9198 83.504V78.496C83.9198 76.88 82.9758 75.776 81.2478 75.776C80.3518 75.776 79.5998 76.08 78.9278 76.592C78.5278 76.064 77.9518 75.776 77.0718 75.776C76.2398 75.776 75.4398 76.048 74.7358 76.496C74.5758 76.24 74.3678 76.064 74.0958 76.064C73.7598 76.064 73.5038 76.304 73.5038 76.624C73.5038 76.784 73.5838 76.88 73.6158 76.944C73.7598 77.184 73.9038 77.184 73.9038 78.064V83.504C73.9038 83.84 74.1118 84.112 74.5278 84.112C74.9438 84.112 75.1518 83.84 75.1518 83.504V78.064C75.1518 77.92 75.1358 77.76 75.1038 77.568C75.5518 77.232 76.2558 76.928 76.9598 76.928C78.0958 76.928 78.2878 77.728 78.2878 78.864V83.504C78.2878 83.84 78.4958 84.112 78.9118 84.112C79.3278 84.112 79.5358 83.84 79.5358 83.504V78.496C79.5358 78.24 79.5038 78 79.4558 77.776C79.8398 77.296 80.5278 76.928 81.2158 76.928C82.1918 76.928 82.6718 77.632 82.6718 78.528V83.504Z" fill="black"/>
<path d="M87.845 73.312C87.845 72.88 87.509 72.544 87.077 72.544C86.645 72.544 86.309 72.88 86.309 73.312C86.309 73.728 86.645 74.08 87.077 74.08C87.509 74.08 87.845 73.728 87.845 73.312ZM87.701 83.504V76.448C87.701 76.112 87.429 75.824 87.077 75.824C86.725 75.824 86.453 76.112 86.453 76.448V83.504C86.453 83.856 86.725 84.128 87.077 84.128C87.429 84.128 87.701 83.856 87.701 83.504Z" fill="black"/>
<path d="M90.9668 82.496C90.9668 83.936 91.5748 84.128 91.9748 84.128C92.2948 84.128 92.5508 83.872 92.5508 83.552C92.5508 83.424 92.4868 83.312 92.4388 83.248C92.2468 83.056 92.2148 82.848 92.2148 82.496V78.496L93.8628 77.408C94.0228 77.296 94.1188 77.12 94.1188 76.944C94.1188 76.88 94.1028 76.816 94.0868 76.752C94.0068 76.512 93.7828 76.352 93.5588 76.352C93.3508 76.352 93.2388 76.416 93.0948 76.512L92.2148 77.088V73.024C92.2148 72.672 91.9428 72.4 91.5908 72.4C91.2388 72.4 90.9668 72.688 90.9668 73.024V77.92L89.5588 78.832C89.3828 78.944 89.2868 79.136 89.2868 79.312C89.2868 79.728 89.6068 79.92 89.9428 79.92C90.0708 79.92 90.1988 79.824 90.3108 79.744L90.9668 79.312V82.496Z" fill="black"/>
<path d="M98.1495 84.128C100.101 84.128 101.141 82.88 101.141 81.28V78.608C101.141 77.008 100.101 75.76 98.1495 75.76C96.1975 75.76 95.1575 77.008 95.1575 78.608V81.28C95.1575 82.88 96.1975 84.128 98.1495 84.128ZM98.1495 82.976C96.9975 82.976 96.4055 82.336 96.4055 81.28V78.592C96.4055 77.552 96.9975 76.912 98.1495 76.912C99.3015 76.912 99.8935 77.552 99.8935 78.592V81.28C99.8935 82.336 99.3015 82.976 98.1495 82.976Z" fill="black"/>
<path d="M102.707 78.08C102.707 80.192 104.835 80.304 105.843 80.848C106.163 81.024 106.435 81.264 106.435 81.84C106.435 82.672 105.843 83.024 104.963 83.024C104.323 83.024 103.811 82.832 103.363 82.656C103.315 82.64 103.299 82.624 103.203 82.624C102.819 82.624 102.611 82.928 102.611 83.2C102.611 83.936 104.147 84.128 104.963 84.128C106.739 84.128 107.651 83.232 107.651 81.792C107.651 79.712 105.779 79.568 104.675 79.024C104.131 78.752 103.923 78.496 103.923 78C103.923 77.264 104.371 76.88 105.347 76.88C105.923 76.88 106.227 77.008 106.563 77.168C106.659 77.216 106.739 77.248 106.851 77.248C107.187 77.248 107.427 76.976 107.427 76.672C107.427 76 106.131 75.776 105.299 75.776C103.603 75.776 102.707 76.704 102.707 78.08ZM104.675 74.016C104.611 74.096 104.595 74.176 104.595 74.256C104.595 74.592 104.835 74.816 105.123 74.816C105.331 74.816 105.443 74.704 105.635 74.528L106.931 73.152C106.995 73.072 107.011 72.96 107.011 72.88C107.011 72.576 106.739 72.352 106.515 72.352C106.227 72.352 106.147 72.512 105.923 72.72L104.675 74.016Z" fill="black"/>
<path d="M109.079 81.184C109.079 82.832 109.943 84.128 111.943 84.128C112.695 84.128 114.167 83.904 114.167 83.152C114.167 82.864 113.927 82.608 113.623 82.608C113.543 82.608 113.463 82.624 113.367 82.656C112.983 82.848 112.631 83.024 112.071 83.024C110.823 83.024 110.327 82.352 110.327 81.184V78.768C110.327 77.6 110.823 76.928 112.071 76.928C112.631 76.928 112.983 77.104 113.367 77.296C113.463 77.328 113.543 77.344 113.623 77.344C113.927 77.344 114.167 77.088 114.167 76.8C114.167 76.048 112.695 75.824 111.943 75.824C109.943 75.824 109.079 77.12 109.079 78.768V81.184Z" fill="black"/>
<path d="M117.361 73.312C117.361 72.88 117.025 72.544 116.593 72.544C116.161 72.544 115.825 72.88 115.825 73.312C115.825 73.728 116.161 74.08 116.593 74.08C117.025 74.08 117.361 73.728 117.361 73.312ZM117.217 83.504V76.448C117.217 76.112 116.945 75.824 116.593 75.824C116.241 75.824 115.969 76.112 115.969 76.448V83.504C115.969 83.856 116.241 84.128 116.593 84.128C116.945 84.128 117.217 83.856 117.217 83.504Z" fill="black"/>
<path d="M126.85 86.496C126.85 86.272 126.658 86.064 126.418 86.064C126.242 86.064 126.13 86.144 125.746 86.144C125.266 86.144 125.042 85.824 125.042 85.424C125.042 84.976 125.202 84.336 125.538 84C125.682 83.872 125.842 83.776 125.842 83.536C125.842 83.264 125.682 82.992 125.378 82.992C125.314 82.992 125.298 83.008 125.25 83.008C125.058 83.008 124.962 82.848 124.962 82.528V79.008C124.962 76.896 124.162 75.776 122.162 75.776C121.058 75.776 119.858 76.08 119.922 76.816C119.938 77.056 120.066 77.344 120.37 77.344C120.546 77.344 120.738 77.232 120.786 77.216C121.138 77.024 121.442 76.88 122.002 76.88C123.154 76.88 123.714 77.424 123.714 78.592V79.504C123.218 79.36 122.674 79.28 122.098 79.28C120.21 79.28 119.282 80.08 119.282 81.648V81.712C119.282 83.152 120.082 84.128 121.73 84.128C122.594 84.128 123.314 83.84 123.922 83.28C124.082 83.616 124.322 83.856 124.626 83.984C124.226 84.512 123.97 85.12 123.97 85.68C123.97 86.672 124.626 87.12 125.618 87.12C126.114 87.12 126.85 87.04 126.85 86.496ZM122.082 80.336C122.562 80.336 123.186 80.416 123.714 80.576V82.304C123.154 82.784 122.61 83.008 121.922 83.008C120.85 83.008 120.514 82.48 120.514 81.728V81.664C120.514 80.944 120.77 80.336 122.082 80.336Z" fill="black"/>
<path d="M128.969 83.28C128.969 82.816 128.585 82.432 128.121 82.432C127.641 82.432 127.257 82.816 127.257 83.28C127.257 83.76 127.641 84.16 128.121 84.16C128.585 84.16 128.969 83.76 128.969 83.28Z" fill="black"/>
</svg>
