<svg width="168" height="32" viewBox="0 0 168 32" fill="none" xmlns="http://www.w3.org/2000/svg">
<path d="M12.0001 7.66663C7.39521 7.66663 3.66675 11.3951 3.66675 16C3.66675 20.6048 7.39521 24.3333 12.0001 24.3333C16.605 24.3333 20.3334 20.6048 20.3334 16C20.3334 11.3951 16.605 7.66663 12.0001 7.66663ZM14.3025 12.7617H13.0845C12.8913 12.7617 12.6091 12.8657 12.6091 13.2816V14.4105H14.2877L14.0946 16.3268H12.6091V21.7783H10.3512V16.3268H9.28172V14.4105H10.3512V13.1776C10.3512 12.2864 10.7672 10.9049 12.624 10.9049H14.2877V12.7617H14.3025Z" fill="black"/>
<path d="M57.1666 10.2634C56.4848 10.5625 55.7584 10.7607 55.001 10.857C55.7801 10.3918 56.3748 9.66073 56.6544 8.77958C55.9279 9.21271 55.1259 9.51865 54.2711 9.68938C53.5813 8.9549 52.5981 8.5 51.5256 8.5C49.4448 8.5 47.7696 10.189 47.7696 12.2595C47.7696 12.5574 47.7948 12.8439 47.8567 13.1166C44.732 12.9642 41.9671 11.4666 40.1097 9.18521C39.7854 9.74781 39.5952 10.3918 39.5952 11.085C39.5952 12.3867 40.2655 13.5405 41.2647 14.2085C40.6609 14.1971 40.0685 14.0218 39.5666 13.7456C39.5666 13.7571 39.5666 13.772 39.5666 13.7869C39.5666 15.6133 40.8694 17.1304 42.5778 17.4799C42.2719 17.5635 41.9385 17.6036 41.5924 17.6036C41.3518 17.6036 41.1089 17.5899 40.8809 17.5395C41.3678 19.0279 42.7497 20.1222 44.3928 20.1577C43.1141 21.158 41.4904 21.7607 39.7327 21.7607C39.4245 21.7607 39.1289 21.747 38.8333 21.7092C40.4981 22.7828 42.4713 23.3958 44.5991 23.3958C51.5153 23.3958 55.2966 17.6667 55.2966 12.7006C55.2966 12.5345 55.2909 12.3741 55.2828 12.2148C56.0288 11.6854 56.6555 11.0243 57.1666 10.2634Z" fill="black"/>
<path d="M87.3697 7.66663H80.6335C77.893 7.66663 75.6667 9.89288 75.6667 12.6334V19.3696C75.6667 22.107 77.893 24.3333 80.6335 24.3333H87.3697C90.1072 24.3333 92.3364 22.107 92.3364 19.3666V12.6334C92.3334 9.89288 90.1072 7.66663 87.3697 7.66663ZM90.6577 19.3696C90.6577 21.1845 89.1846 22.6576 87.3697 22.6576H80.6335C78.8186 22.6576 77.3455 21.1845 77.3455 19.3696V12.6334C77.3455 10.8185 78.8186 9.34539 80.6335 9.34539H87.3697C89.1846 9.34539 90.6577 10.8185 90.6577 12.6334V19.3696Z" fill="black"/>
<path d="M84 11.6896C81.6225 11.6896 79.6897 13.6224 79.6897 15.9999C79.6897 18.3774 81.6225 20.3103 84 20.3103C86.3775 20.3103 88.3104 18.3774 88.3104 15.9999C88.3104 13.6224 86.3775 11.6896 84 11.6896ZM84 18.6345C82.5451 18.6345 81.3654 17.4549 81.3654 15.9999C81.3654 14.545 82.5451 13.3653 84 13.3653C85.455 13.3653 86.6346 14.545 86.6346 15.9999C86.6346 17.4549 85.455 18.6345 84 18.6345Z" fill="black"/>
<path d="M88.3195 12.7543C88.8892 12.7543 89.351 12.2925 89.351 11.7229C89.351 11.1532 88.8892 10.6914 88.3195 10.6914C87.7499 10.6914 87.2881 11.1532 87.2881 11.7229C87.2881 12.2925 87.7499 12.7543 88.3195 12.7543Z" fill="black"/>
<path d="M128.21 12.3119V12.3054C128.197 12.1719 128.053 10.9773 127.474 10.3718C126.803 9.65564 126.045 9.571 125.68 9.52869C125.651 9.52543 125.622 9.52218 125.599 9.51892L125.57 9.51567C123.363 9.35616 120.036 9.33337 120.003 9.33337H120H119.997C119.964 9.33337 116.637 9.35616 114.414 9.51567L114.385 9.51892C114.362 9.52218 114.336 9.52543 114.307 9.52869C113.945 9.571 113.193 9.65564 112.52 10.3978C111.966 10.9968 111.807 12.1654 111.79 12.2956L111.787 12.3119C111.784 12.3672 111.667 13.6986 111.667 15.0332V16.28C111.667 17.6146 111.784 18.9427 111.79 18.9981V19.0079C111.803 19.1413 111.943 20.3099 112.523 20.9187C113.154 21.6088 113.952 21.6999 114.378 21.7487C114.447 21.7552 114.505 21.7618 114.544 21.7715L114.583 21.778C115.856 21.8985 119.844 21.9603 120.013 21.9603H120.02H120.026C120.059 21.9603 123.385 21.9375 125.589 21.778L125.619 21.7748C125.648 21.7715 125.677 21.7683 125.713 21.765C126.071 21.726 126.82 21.6478 127.484 20.9187C128.037 20.3197 128.197 19.1511 128.213 19.0209L128.216 19.0046C128.223 18.9493 128.34 17.6211 128.34 16.2865V15.0398C128.333 13.6986 128.216 12.3672 128.21 12.3119ZM122.559 16.0879L118.877 18.0671C118.776 18.1224 118.669 18.1485 118.558 18.1485C118.438 18.1485 118.317 18.1159 118.21 18.0508C118.005 17.9271 117.881 17.7123 117.881 17.4714V13.4805C117.881 13.2396 118.005 13.0215 118.213 12.8978C118.421 12.7741 118.672 12.7676 118.884 12.8848L122.565 14.8998C122.783 15.0202 122.917 15.2481 122.913 15.4955C122.913 15.7429 122.777 15.9707 122.559 16.0879Z" fill="black"/>
<path d="M149.672 6.41663C148.562 6.41663 147.667 7.31172 147.667 8.42164C147.667 9.53156 148.562 10.4267 149.672 10.4267C150.782 10.4267 151.677 9.53156 151.677 8.42164C151.677 7.31172 150.782 6.41663 149.672 6.41663Z" fill="black"/>
<path d="M151.389 11.9303H147.934V23.0474H151.389V11.9303Z" fill="black"/>
<path d="M160.179 11.6617C158.496 11.6617 157.369 12.5747 156.921 13.4519H156.867V11.9303H153.555V23.0474H157.01V17.5515C157.01 16.1014 157.279 14.7051 159.087 14.7051C160.859 14.7051 160.877 16.3699 160.877 17.6589V23.0474H164.332V16.9607C164.332 13.9532 163.688 11.6617 160.179 11.6617Z" fill="black"/>
</svg>
