<svg width="237" height="260" viewBox="0 0 237 260" fill="none" xmlns="http://www.w3.org/2000/svg">
<path fill-rule="evenodd" clip-rule="evenodd" d="M0 8C0 6.89543 0.89543 6 2 6L30 6C31.1046 6 32 6.89543 32 8C32 9.10457 31.1046 10 30 10L2 10C0.89543 10 0 9.10457 0 8Z" fill="url(#paint0_linear)"/>
<path d="M15.84 56.52C15.488 55.08 14.912 54.152 13.28 54.152C11.52 54.152 11.072 55.016 10.688 56.52L8.80003 64.04C8.38403 65.736 8.22403 67.656 7.90403 69.352C7.58403 67.592 7.42403 65.768 6.97603 64.04L4.86403 55.784C4.60803 54.728 3.71203 54.248 2.78403 54.248C1.66403 54.248 0.384033 54.984 0.384033 56.168C0.384033 56.168 0.448033 56.456 0.512033 56.776L5.21603 75.272C5.50403 76.232 6.56003 77.288 7.87203 77.288C9.56803 77.288 10.208 76.232 10.496 75.304L12.416 67.4C12.832 65.736 12.992 63.976 13.28 62.28C13.568 63.976 13.728 65.736 14.144 67.4L16.032 75.24C16.352 76.296 17.152 77.288 18.688 77.288C20.224 77.288 20.992 76.328 21.312 75.272L26.112 56.616C26.176 56.424 26.176 56.264 26.176 56.2C26.176 54.856 24.768 54.248 23.68 54.248C22.688 54.248 21.888 54.856 21.632 55.88L19.584 64.04C19.136 65.8 18.944 67.592 18.624 69.384C18.304 67.592 18.144 65.8 17.696 64.04L15.84 56.52Z" fill="black"/>
<path d="M34.195 70.888C38.515 70.888 40.403 69.096 40.403 66.024C40.403 62.792 38.323 60.584 34.131 60.584C29.683 60.584 27.315 63.048 27.315 66.28V71.624C27.315 74.792 29.747 77.224 33.971 77.224C36.019 77.224 40.115 76.648 40.115 74.408C40.115 73.672 39.667 72.648 38.131 72.648C37.587 72.648 37.299 72.776 37.171 72.84C36.147 73.288 35.315 73.544 34.291 73.544C32.563 73.544 31.731 72.84 31.731 71.752V70.696C32.659 70.824 33.363 70.888 34.195 70.888ZM36.019 65.8C36.019 67.176 35.251 67.592 34.035 67.592C33.715 67.592 32.755 67.56 31.731 67.464V66.088C31.731 64.808 32.563 64.008 34.099 64.008C35.347 64.008 36.019 64.52 36.019 65.8Z" fill="black"/>
<path d="M43.0323 65.544C43.0323 69.992 47.7363 70.088 49.8163 71.24C50.1683 71.432 50.4883 71.688 50.4883 72.264C50.4883 73.16 49.6883 73.544 48.5363 73.544C46.9683 73.544 45.9763 72.84 44.9203 72.84C43.6723 72.84 42.8403 73.8 42.8403 74.728C42.8403 76.712 46.5523 77.224 48.6003 77.224C52.6323 77.224 54.8403 75.272 54.8403 72.168C54.8403 67.912 50.6483 67.464 48.3443 66.472C47.6403 66.184 47.3843 65.864 47.3843 65.416C47.3843 64.68 48.0243 64.264 49.2403 64.264C50.8083 64.264 51.3843 64.936 52.5043 64.936C53.1763 64.936 54.3923 64.68 54.3923 63.304C54.3923 61.096 51.2883 60.584 49.2083 60.584C45.1123 60.584 43.0323 62.6 43.0323 65.544Z" fill="black"/>
<path d="M64.3215 77.224C68.8655 77.224 71.2655 74.632 71.2655 71.272V66.504C71.2655 63.144 68.8655 60.552 64.3215 60.552C59.7775 60.552 57.3775 63.144 57.3775 66.504V71.272C57.3775 74.632 59.7775 77.224 64.3215 77.224ZM64.3215 73.448C62.6575 73.448 61.7935 72.616 61.7935 71.272V66.472C61.7935 65.16 62.6575 64.328 64.3215 64.328C65.9855 64.328 66.8495 65.16 66.8495 66.472V71.272C66.8495 72.616 65.9855 73.448 64.3215 73.448Z" fill="black"/>
<path d="M84.4308 61.768C84.2388 61.192 83.6948 60.808 83.1508 60.808C82.6708 60.808 82.3828 60.968 82.0308 61.192L80.6548 62.12V55.88C80.6548 54.76 79.6948 53.896 78.4468 53.896C77.1988 53.896 76.2388 54.824 76.2388 55.88V65L73.5508 66.76C73.1348 67.016 72.9108 67.496 72.9108 67.912C72.9108 68.904 73.6788 69.352 74.4788 69.352C74.7988 69.352 75.0868 69.128 75.3748 68.936L76.2388 68.36V73.448C76.2388 76.808 78.0308 77.224 79.3108 77.224C80.8148 77.224 81.7108 76.648 81.7108 75.496C81.7108 74.888 81.4548 74.728 81.1348 74.376C80.6868 73.896 80.6548 73.736 80.6548 73.064V65.48L83.8868 63.336C84.2708 63.08 84.4948 62.632 84.4948 62.216C84.4948 62.056 84.4628 61.928 84.4308 61.768Z" fill="black"/>
<path d="M93.4533 67.4C93.0693 68.552 92.8453 69.896 92.5573 71.08C92.2053 69.896 91.9813 68.552 91.5333 67.4L89.5173 62.024C89.1653 61.128 88.3653 60.68 87.5013 60.68C86.2533 60.68 85.2933 61.48 85.2933 62.568C85.2933 62.76 85.3253 63.048 85.4533 63.368L90.3813 76.072C89.6133 78.568 88.9093 79.592 87.5013 79.656C86.1893 79.72 85.3893 80.616 85.3893 81.576C85.3893 82.696 86.3493 83.496 87.6293 83.496C92.4933 83.496 93.7093 79.784 95.4693 74.6L99.3733 63.208C99.4373 63.048 99.4693 62.856 99.4693 62.632C99.4693 61.48 98.3813 60.68 97.2613 60.68C96.3973 60.68 95.4693 61.096 95.1813 62.024L93.4533 67.4Z" fill="black"/>
<path d="M101.378 71.112C101.378 74.536 103.458 77.224 107.97 77.224C109.89 77.224 113.474 76.744 113.474 74.44C113.474 73.704 113.09 72.808 111.426 72.808C110.978 72.808 110.754 72.872 110.434 73C109.794 73.256 109.25 73.544 108.258 73.544C106.498 73.544 105.794 72.616 105.794 71.112V66.792C105.794 65.288 106.498 64.36 108.258 64.36C109.25 64.36 109.762 64.648 110.434 64.904C110.882 65.064 111.17 65.096 111.49 65.096C113.09 65.096 113.474 64.232 113.474 63.464C113.474 61.128 109.89 60.68 108.002 60.68C103.426 60.68 101.378 63.368 101.378 66.792V71.112Z" fill="black"/>
<path d="M120.62 65.128C121.356 64.424 122.476 64.072 123.372 64.072C124.684 64.072 125.196 64.68 125.196 65.896V75.24C125.196 76.36 126.156 77.224 127.404 77.224C128.588 77.224 129.612 76.36 129.612 75.24V66.184C129.612 62.888 127.756 60.584 123.66 60.584C122.572 60.584 121.516 60.904 120.62 61.448V55.72C120.62 54.6 119.66 53.736 118.412 53.736C117.164 53.736 116.236 54.696 116.236 55.72V75.24C116.236 76.36 117.196 77.224 118.444 77.224C119.692 77.224 120.62 76.36 120.62 75.24V65.128Z" fill="black"/>
<path d="M6.81603 91.408C6.62403 91.664 6.56003 91.888 6.56003 92.208C6.56003 93.136 7.29603 93.776 8.19203 93.776C8.89603 93.776 9.15203 93.52 9.63203 93.104L12.256 90.48C12.48 90.16 12.544 89.84 12.544 89.584C12.544 88.688 11.712 88.016 10.976 88.016C10.272 88.016 10.048 88.24 9.66403 88.624L9.40803 88.88L6.81603 91.408ZM11.2 111.472C11.2 113.232 10.08 114.224 7.87203 114.224C6.49603 114.224 5.47203 113.84 4.70403 113.584C4.09603 113.36 3.58403 113.2 3.10403 113.2C1.92003 113.2 0.992033 114.192 0.992033 115.216C0.992033 117.456 5.47203 118.288 7.84003 118.288C12.416 118.288 15.808 115.728 15.808 111.28C15.808 106.736 12.384 105.648 9.24803 104.656C8.54403 104.464 7.77603 104.208 6.94403 103.792C6.40003 103.536 5.60003 103.056 5.60003 101.648C5.60003 99.76 7.07203 99.216 8.64003 99.216C9.76003 99.216 10.464 99.472 11.072 99.696C11.616 99.856 12.064 100.048 12.64 100.048C14.048 100.048 14.88 99.088 14.88 98.032C14.88 95.632 10.336 95.152 8.44803 95.152C3.90403 95.152 1.02403 97.648 1.02403 101.776C1.02403 106.416 4.41603 107.472 7.55203 108.432C8.41603 108.72 9.21603 109.008 9.88803 109.296C10.464 109.552 11.2 110.032 11.2 111.472Z" fill="black"/>
<path d="M29.6818 116.624C29.9698 117.648 30.9938 118.224 32.0818 118.224C33.6178 118.224 34.2258 117.584 34.6098 116.336L38.3218 103.952C38.3218 103.856 38.3538 103.664 38.3538 103.632C38.3538 102.512 37.3298 101.68 36.1778 101.68C35.2498 101.68 34.3218 102.32 34.0978 103.12L32.7218 108.4C32.3058 110 32.3058 111.664 32.0818 113.296C31.8258 111.664 31.6978 110 31.3138 108.4L30.0658 103.312C29.8418 102.384 29.0098 101.68 27.7618 101.68C26.4818 101.68 25.6498 102.384 25.3938 103.312L24.1138 108.4C23.6978 110 23.6338 111.632 23.3778 113.264C23.1538 111.632 23.1538 110 22.7378 108.4L21.3618 103.12C21.1058 102.192 20.2098 101.68 19.2818 101.68C18.0338 101.68 17.0738 102.608 17.0738 103.6C17.0738 103.728 17.0738 103.856 17.1378 104.016L20.8498 116.304C21.2338 117.52 21.9698 118.224 23.3778 118.224C24.6898 118.224 25.4898 117.776 25.8098 116.624L27.1218 111.504C27.4418 110.224 27.5378 108.912 27.7298 107.6C27.9218 108.912 27.9858 110.224 28.3378 111.504L29.6818 116.624Z" fill="black"/>
<path d="M46.04 97.392C46.04 96.176 44.952 95.152 43.544 95.152C42.136 95.152 41.048 96.144 41.048 97.392C41.048 98.608 42.136 99.632 43.544 99.632C44.952 99.632 46.04 98.64 46.04 97.392ZM45.752 103.632C45.752 102.576 44.792 101.68 43.544 101.68C42.296 101.68 41.336 102.576 41.336 103.632V116.24C41.336 117.36 42.296 118.224 43.544 118.224C44.792 118.224 45.752 117.36 45.752 116.24V103.632Z" fill="black"/>
<path d="M65.7578 123.312C65.7578 122.576 65.1178 121.936 64.3178 121.936H64.0298C63.7098 121.968 63.3258 122.064 62.9738 122.064C62.3978 122.064 62.1418 121.712 62.1418 121.264C62.1418 120.112 62.9738 118.608 63.7738 117.68C64.0618 117.36 64.2538 116.976 64.2538 116.464C64.2538 115.792 63.9978 115.44 63.5178 115.248C62.9738 115.024 62.4938 115.12 62.4938 114.16V108.208C62.4938 103.888 60.6058 101.584 55.9658 101.584C53.3098 101.584 50.4938 102.352 50.4938 104.24C50.4938 105.04 51.0058 106.096 52.3498 106.096C52.9578 106.096 53.3098 105.872 53.5658 105.776C54.2058 105.488 54.7498 105.264 55.6458 105.264C57.2778 105.264 58.0778 105.968 58.0778 107.472V108.496C57.2458 108.24 56.4138 108.176 55.5498 108.176C51.3258 108.176 49.2138 109.808 49.2138 113.072V113.168C49.2138 116.208 51.1978 118.224 54.9098 118.224C56.7018 118.224 58.0458 117.744 59.2298 116.784C59.6138 117.328 60.0298 117.68 60.5098 117.904C59.5178 119.152 58.8458 120.56 58.8458 121.744C58.8458 123.984 60.4138 125.008 62.7178 125.008C63.9338 125.008 65.7578 124.784 65.7578 123.312ZM55.8058 111.28C56.4458 111.28 57.2778 111.376 58.0778 111.536V113.84C57.2458 114.48 56.4138 114.672 55.5818 114.672C54.2058 114.672 53.5978 114.256 53.5978 113.2V113.104C53.5978 112.144 53.9498 111.28 55.8058 111.28Z" fill="black"/>
<path d="M66.673 111.344C66.673 115.696 67.953 118.128 72.913 118.128C74.513 118.128 75.985 117.872 75.985 116.016C75.985 114.832 75.377 114.288 73.361 114.288C73.297 114.288 73.105 114.32 72.817 114.32C71.281 114.32 71.089 113.488 71.089 111.12V106.288H73.457C74.641 106.288 75.569 105.488 75.569 104.4C75.569 103.312 74.641 102.48 73.457 102.48H71.089V98.928C71.089 97.872 70.289 96.976 68.881 96.976C67.473 96.976 66.673 97.84 66.673 98.928V111.344Z" fill="black"/>
<path d="M79.0548 110.704C79.0548 111.696 79.8868 112.496 80.9748 112.496C81.9668 112.496 82.8628 111.664 82.8948 110.704L83.2148 97.232C83.2148 96.144 82.1908 95.152 80.9748 95.152C79.7268 95.152 78.7348 96.144 78.7348 97.232L79.0548 110.704ZM83.6948 115.792C83.6948 114.448 82.4788 113.328 81.0388 113.328C79.5348 113.328 78.3508 114.448 78.3508 115.792C78.3508 117.136 79.5348 118.288 81.0388 118.288C82.4788 118.288 83.6948 117.136 83.6948 115.792Z" fill="black"/>
<path d="M7.71197 178.16C8.12797 178.16 8.41597 177.84 8.41597 177.456V167.216C8.41597 166.864 8.14397 166.56 7.79197 166.56C7.43997 166.56 7.13597 166.864 7.13597 167.216V175.456L2.52797 166.944C2.39997 166.704 2.12797 166.56 1.85597 166.56C1.45597 166.56 1.16797 166.864 1.16797 167.264V177.504C1.16797 177.856 1.43997 178.16 1.79197 178.16C2.14397 178.16 2.44797 177.856 2.44797 177.504V169.264L7.05597 177.792C7.18397 178.016 7.45597 178.16 7.71197 178.16Z" fill="black"/>
<path d="M12.3137 167.312C12.3137 166.88 11.9777 166.544 11.5457 166.544C11.1137 166.544 10.7777 166.88 10.7777 167.312C10.7777 167.728 11.1137 168.08 11.5457 168.08C11.9777 168.08 12.3137 167.728 12.3137 167.312ZM12.1697 177.504V170.448C12.1697 170.112 11.8977 169.824 11.5457 169.824C11.1937 169.824 10.9217 170.112 10.9217 170.448V177.504C10.9217 177.856 11.1937 178.128 11.5457 178.128C11.8977 178.128 12.1697 177.856 12.1697 177.504Z" fill="black"/>
<path d="M17.2276 177.024C16.0756 177.024 15.4836 176.448 15.4836 175.552V174.608C16.0436 174.704 16.6356 174.752 17.1156 174.752C19.0196 174.752 19.8196 173.856 19.8196 172.384C19.8196 170.8 18.9396 169.776 17.1636 169.776C15.2596 169.776 14.2356 170.944 14.2356 172.48V175.472C14.2356 176.976 15.2756 178.128 17.0836 178.128C17.9476 178.128 19.6756 177.872 19.6756 177.088C19.6756 176.8 19.4356 176.528 19.1156 176.528C19.0036 176.528 18.9236 176.56 18.8916 176.576C18.3316 176.832 17.8996 177.024 17.2276 177.024ZM18.5876 172.384C18.5876 173.04 18.3796 173.696 17.1636 173.696C16.8436 173.696 16.0756 173.664 15.4836 173.584V172.368C15.4836 171.472 16.0916 170.912 17.1316 170.912C18.0596 170.912 18.5876 171.344 18.5876 172.384Z" fill="black"/>
<path d="M21.1887 175.184C21.1887 176.832 22.0527 178.128 24.0527 178.128C24.8047 178.128 26.2767 177.904 26.2767 177.152C26.2767 176.864 26.0367 176.608 25.7327 176.608C25.6527 176.608 25.5727 176.624 25.4767 176.656C25.0927 176.848 24.7407 177.024 24.1807 177.024C22.9327 177.024 22.4367 176.352 22.4367 175.184V172.768C22.4367 171.6 22.9327 170.928 24.1807 170.928C24.7407 170.928 25.0927 171.104 25.4767 171.296C25.5727 171.328 25.6527 171.344 25.7327 171.344C26.0367 171.344 26.2767 171.088 26.2767 170.8C26.2767 170.048 24.8047 169.824 24.0527 169.824C22.0527 169.824 21.1887 171.12 21.1887 172.768V175.184Z" fill="black"/>
<path d="M29.041 177.504V171.856C29.505 171.232 30.241 170.944 30.897 170.944C31.889 170.944 32.289 171.472 32.289 172.448V177.504C32.289 177.856 32.561 178.128 32.913 178.128C33.249 178.128 33.537 177.856 33.537 177.504V172.432C33.537 170.88 32.753 169.776 31.041 169.776C30.273 169.776 29.585 170.032 29.041 170.448V166.928C29.041 166.576 28.769 166.304 28.417 166.304C28.065 166.304 27.809 166.608 27.809 166.928V177.504C27.809 177.856 28.081 178.128 28.433 178.128C28.785 178.128 29.041 177.856 29.041 177.504Z" fill="black"/>
<path d="M40.7152 174.752C40.7152 176.96 41.2592 178.064 43.4992 178.064C43.9472 178.064 44.4112 178 44.4112 177.456C44.4112 176.944 43.9472 176.88 43.5792 176.88C43.4832 176.88 43.3712 176.896 43.2752 176.896C42.1232 176.896 41.9632 176.288 41.9632 174.64V171.456H43.6272C43.9472 171.456 44.2032 171.2 44.2032 170.864C44.2032 170.528 43.9472 170.272 43.6272 170.272H41.9632V168.064C41.9632 167.728 41.7392 167.456 41.3392 167.456C40.9392 167.456 40.7152 167.728 40.7152 168.064V174.752Z" fill="black"/>
<path d="M48.3682 177.024C47.2162 177.024 46.6242 176.448 46.6242 175.552V174.608C47.1842 174.704 47.7762 174.752 48.2562 174.752C50.1602 174.752 50.9602 173.856 50.9602 172.384C50.9602 170.8 50.0802 169.776 48.3042 169.776C46.4002 169.776 45.3762 170.944 45.3762 172.48V175.472C45.3762 176.976 46.4162 178.128 48.2242 178.128C49.0882 178.128 50.8162 177.872 50.8162 177.088C50.8162 176.8 50.5762 176.528 50.2562 176.528C50.1442 176.528 50.0642 176.56 50.0322 176.576C49.4722 176.832 49.0402 177.024 48.3682 177.024ZM49.7282 172.384C49.7282 173.04 49.5202 173.696 48.3042 173.696C47.9842 173.696 47.2162 173.664 46.6242 173.584V172.368C46.6242 171.472 47.2322 170.912 48.2722 170.912C49.2002 170.912 49.7282 171.344 49.7282 172.384Z" fill="black"/>
<path d="M57.2542 172.08C57.2542 174.192 59.3822 174.304 60.3902 174.848C60.7102 175.024 60.9822 175.264 60.9822 175.84C60.9822 176.672 60.3902 177.024 59.5102 177.024C58.8702 177.024 58.3582 176.832 57.9102 176.656C57.8622 176.64 57.8462 176.624 57.7502 176.624C57.3662 176.624 57.1582 176.928 57.1582 177.2C57.1582 177.936 58.6942 178.128 59.5102 178.128C61.2862 178.128 62.1982 177.232 62.1982 175.792C62.1982 173.712 60.3262 173.568 59.2222 173.024C58.6782 172.752 58.4702 172.496 58.4702 172C58.4702 171.264 58.9182 170.88 59.8942 170.88C60.4702 170.88 60.7742 171.008 61.1102 171.168C61.2062 171.216 61.2862 171.248 61.3982 171.248C61.7342 171.248 61.9742 170.976 61.9742 170.672C61.9742 170 60.6782 169.776 59.8462 169.776C58.1502 169.776 57.2542 170.704 57.2542 172.08ZM59.2222 168.016C59.1582 168.096 59.1422 168.176 59.1422 168.256C59.1422 168.592 59.3822 168.816 59.6702 168.816C59.8782 168.816 59.9902 168.704 60.1822 168.528L61.4782 167.152C61.5422 167.072 61.5582 166.96 61.5582 166.88C61.5582 166.576 61.2862 166.352 61.0622 166.352C60.7742 166.352 60.6942 166.512 60.4702 166.72L59.2222 168.016Z" fill="black"/>
<path d="M73.0171 170.56C73.0171 170.528 73.0331 170.48 73.0331 170.448C73.0331 170.096 72.7451 169.824 72.4251 169.824C72.1531 169.824 71.9131 170.016 71.8491 170.272L70.3611 176.16C69.8651 174.224 69.3691 172.336 68.9051 170.384C68.8251 170.064 68.5851 169.824 68.2171 169.824C67.8331 169.824 67.5771 170.064 67.4971 170.384C67.0171 172.336 66.5531 174.224 66.0571 176.16L64.5531 170.272C64.4731 169.984 64.2331 169.824 63.9771 169.824C63.6251 169.824 63.3531 170.112 63.3531 170.416C63.3531 170.448 63.3531 170.48 63.3691 170.512L65.2251 177.408C65.3531 177.856 65.5931 178.128 66.0251 178.128C66.4251 178.128 66.6651 177.968 66.7771 177.584L68.2011 171.968L69.6411 177.584C69.7371 177.936 70.0411 178.128 70.3771 178.128C70.8411 178.128 71.0331 177.888 71.1771 177.408L73.0171 170.56Z" fill="black"/>
<path d="M76.0012 167.312C76.0012 166.88 75.6652 166.544 75.2332 166.544C74.8012 166.544 74.4652 166.88 74.4652 167.312C74.4652 167.728 74.8012 168.08 75.2332 168.08C75.6652 168.08 76.0012 167.728 76.0012 167.312ZM75.8572 177.504V170.448C75.8572 170.112 75.5852 169.824 75.2332 169.824C74.8812 169.824 74.6092 170.112 74.6092 170.448V177.504C74.6092 177.856 74.8812 178.128 75.2332 178.128C75.5852 178.128 75.8572 177.856 75.8572 177.504Z" fill="black"/>
<path d="M83.5071 180.496C83.5071 180.272 83.3151 180.064 83.0751 180.064C82.8991 180.064 82.7871 180.144 82.4031 180.144C81.9231 180.144 81.6991 179.824 81.6991 179.424C81.6991 178.96 81.7951 178.24 82.3071 177.936C82.8191 177.632 83.3631 177.504 83.3631 177.088C83.3631 176.8 83.1231 176.528 82.8031 176.528C82.6911 176.528 82.6111 176.56 82.5791 176.576C82.0191 176.832 81.5871 177.024 80.9151 177.024C79.7631 177.024 79.1711 176.448 79.1711 175.552V174.608C79.7311 174.704 80.3231 174.752 80.8031 174.752C82.7071 174.752 83.5071 173.856 83.5071 172.384C83.5071 170.8 82.6271 169.776 80.8511 169.776C78.9471 169.776 77.9231 170.944 77.9231 172.48V175.472C77.9231 176.976 78.9631 178.128 80.7711 178.128C80.8831 178.128 81.0111 178.112 81.1551 178.112C80.8191 178.592 80.6271 179.152 80.6271 179.68C80.6271 180.672 81.2831 181.12 82.2751 181.12C82.7711 181.12 83.5071 181.04 83.5071 180.496ZM82.2751 172.384C82.2751 173.04 82.0671 173.696 80.8511 173.696C80.5311 173.696 79.7631 173.664 79.1711 173.584V172.368C79.1711 171.472 79.7791 170.912 80.8191 170.912C81.7471 170.912 82.2751 171.344 82.2751 172.384Z" fill="black"/>
<path d="M85.1215 174.752C85.1215 176.96 85.6655 178.064 87.9055 178.064C88.3535 178.064 88.8175 178 88.8175 177.456C88.8175 176.944 88.3535 176.88 87.9855 176.88C87.8895 176.88 87.7775 176.896 87.6815 176.896C86.5295 176.896 86.3695 176.288 86.3695 174.64V171.456H88.0335C88.3535 171.456 88.6095 171.2 88.6095 170.864C88.6095 170.528 88.3535 170.272 88.0335 170.272H86.3695V168.064C86.3695 167.728 86.1455 167.456 85.7455 167.456C85.3455 167.456 85.1215 167.728 85.1215 168.064V174.752Z" fill="black"/>
<path d="M94.2301 173.504C93.7341 173.36 93.1901 173.28 92.6141 173.28C90.7261 173.28 89.7981 174.08 89.7981 175.648V175.712C89.7981 177.152 90.5981 178.128 92.2461 178.128C93.1101 178.128 93.8301 177.84 94.4381 177.28C94.6781 177.776 95.1101 178.08 95.6381 178.08C95.9901 178.08 96.3581 177.936 96.3581 177.536C96.3581 177.264 96.1981 176.992 95.8941 176.992C95.8301 176.992 95.8141 177.008 95.7661 177.008C95.5741 177.008 95.4781 176.848 95.4781 176.528V173.008C95.4781 170.896 94.6781 169.776 92.6781 169.776C91.5741 169.776 90.3741 170.08 90.4381 170.816C90.4541 171.056 90.5821 171.344 90.8861 171.344C91.0621 171.344 91.2541 171.232 91.3021 171.216C91.6541 171.024 91.9581 170.88 92.5181 170.88C93.6701 170.88 94.2301 171.424 94.2301 172.592V173.504ZM92.5981 174.336C93.0781 174.336 93.7021 174.416 94.2301 174.576V176.304C93.6701 176.784 93.1261 177.008 92.4381 177.008C91.3661 177.008 91.0301 176.48 91.0301 175.728V175.664C91.0301 174.944 91.2861 174.336 92.5981 174.336Z" fill="black"/>
<path d="M104.026 171.664C104.474 171.168 105.05 170.864 105.85 170.864C106.922 170.864 107.386 171.392 107.386 172.272V175.28C107.386 176.336 106.858 176.976 105.706 176.976C104.666 176.976 104.026 176.464 104.026 175.6V171.664ZM102.778 175.6C102.778 177.008 103.85 178.128 105.706 178.128C107.658 178.128 108.634 176.88 108.634 175.28V172.272C108.634 170.864 107.978 169.776 106.154 169.776C105.29 169.776 104.618 170.016 104.026 170.432V167.008C104.026 166.688 103.802 166.4 103.402 166.4C103.002 166.4 102.778 166.688 102.778 167.008V175.6Z" fill="black"/>
<path d="M115.663 180.496C115.663 180.272 115.471 180.064 115.231 180.064C115.055 180.064 114.943 180.144 114.559 180.144C114.079 180.144 113.855 179.824 113.855 179.424C113.855 178.96 113.951 178.24 114.463 177.936C114.975 177.632 115.519 177.504 115.519 177.088C115.519 176.8 115.279 176.528 114.959 176.528C114.847 176.528 114.767 176.56 114.735 176.576C114.175 176.832 113.743 177.024 113.071 177.024C111.919 177.024 111.327 176.448 111.327 175.552V174.608C111.887 174.704 112.479 174.752 112.959 174.752C114.863 174.752 115.663 173.856 115.663 172.384C115.663 170.8 114.783 169.776 113.007 169.776C111.103 169.776 110.079 170.944 110.079 172.48V175.472C110.079 176.976 111.119 178.128 112.927 178.128C113.039 178.128 113.167 178.112 113.311 178.112C112.975 178.592 112.783 179.152 112.783 179.68C112.783 180.672 113.439 181.12 114.431 181.12C114.927 181.12 115.663 181.04 115.663 180.496ZM114.431 172.384C114.431 173.04 114.223 173.696 113.007 173.696C112.687 173.696 111.919 173.664 111.327 173.584V172.368C111.327 171.472 111.935 170.912 112.975 170.912C113.903 170.912 114.431 171.344 114.431 172.384Z" fill="black"/>
<path d="M119.704 169.84C117.672 169.84 117.032 171.168 117.032 173.072V175.104C117.032 176.896 117.896 178.128 119.576 178.128C120.376 178.128 121.144 177.856 121.848 177.504C122.04 177.808 122.328 178.016 122.696 178.016C122.968 178.016 123.256 177.792 123.256 177.456C123.256 177.312 123.208 177.232 123.144 177.136C122.824 176.896 122.728 176.624 122.728 176.176V167.008C122.728 166.672 122.504 166.4 122.104 166.4C121.704 166.4 121.48 166.672 121.48 167.008V170.144C120.904 169.952 120.232 169.84 119.704 169.84ZM121.48 176.176C121.48 176.288 121.48 176.416 121.512 176.544C120.968 176.832 120.344 177.008 119.832 177.008C118.776 177.008 118.28 176.352 118.28 175.104V173.072C118.28 171.584 118.696 170.928 119.864 170.928C120.248 170.928 120.952 171.04 121.48 171.264V176.176Z" fill="black"/>
<path d="M132.132 180.496C132.132 180.272 131.94 180.064 131.7 180.064C131.524 180.064 131.412 180.144 131.028 180.144C130.548 180.144 130.324 179.824 130.324 179.424C130.324 178.976 130.484 178.336 130.82 178C130.964 177.872 131.124 177.776 131.124 177.536C131.124 177.264 130.964 176.992 130.66 176.992C130.596 176.992 130.58 177.008 130.532 177.008C130.34 177.008 130.244 176.848 130.244 176.528V173.008C130.244 170.896 129.444 169.776 127.444 169.776C126.34 169.776 125.14 170.08 125.204 170.816C125.22 171.056 125.348 171.344 125.652 171.344C125.828 171.344 126.02 171.232 126.068 171.216C126.42 171.024 126.724 170.88 127.284 170.88C128.436 170.88 128.996 171.424 128.996 172.592V173.504C128.5 173.36 127.956 173.28 127.38 173.28C125.492 173.28 124.564 174.08 124.564 175.648V175.712C124.564 177.152 125.364 178.128 127.012 178.128C127.876 178.128 128.596 177.84 129.204 177.28C129.364 177.616 129.604 177.856 129.908 177.984C129.508 178.512 129.252 179.12 129.252 179.68C129.252 180.672 129.908 181.12 130.9 181.12C131.396 181.12 132.132 181.04 132.132 180.496ZM127.364 174.336C127.844 174.336 128.468 174.416 128.996 174.576V176.304C128.436 176.784 127.892 177.008 127.204 177.008C126.132 177.008 125.796 176.48 125.796 175.728V175.664C125.796 174.944 126.052 174.336 127.364 174.336Z" fill="black"/>
<path d="M140.071 178.128C142.023 178.128 143.063 176.88 143.063 175.28V172.608C143.063 171.008 142.023 169.76 140.071 169.76C138.119 169.76 137.079 171.008 137.079 172.608V175.28C137.079 176.88 138.119 178.128 140.071 178.128ZM140.071 176.976C138.919 176.976 138.327 176.336 138.327 175.28V172.592C138.327 171.552 138.919 170.912 140.071 170.912C141.223 170.912 141.815 171.552 141.815 172.592V175.28C141.815 176.336 141.223 176.976 140.071 176.976Z" fill="black"/>
<path d="M147.173 169.84C145.141 169.84 144.501 171.168 144.501 173.072V175.104C144.501 176.896 145.365 178.128 147.045 178.128C147.845 178.128 148.613 177.856 149.317 177.504C149.509 177.808 149.797 178.016 150.165 178.016C150.437 178.016 150.725 177.792 150.725 177.456C150.725 177.312 150.677 177.232 150.613 177.136C150.293 176.896 150.197 176.624 150.197 176.176V167.008C150.197 166.672 149.973 166.4 149.573 166.4C149.173 166.4 148.949 166.672 148.949 167.008V170.144C148.373 169.952 147.701 169.84 147.173 169.84ZM148.949 176.176C148.949 176.288 148.949 176.416 148.981 176.544C148.437 176.832 147.813 177.008 147.301 177.008C146.245 177.008 145.749 176.352 145.749 175.104V173.072C145.749 171.584 146.165 170.928 147.333 170.928C147.717 170.928 148.421 171.04 148.949 171.264V176.176Z" fill="black"/>
<path d="M152.314 175.184C152.314 176.832 153.178 178.128 155.178 178.128C155.93 178.128 157.402 177.904 157.402 177.152C157.402 176.864 157.162 176.608 156.858 176.608C156.778 176.608 156.698 176.624 156.602 176.656C156.218 176.848 155.866 177.024 155.306 177.024C154.058 177.024 153.562 176.352 153.562 175.184V172.768C153.562 171.6 154.058 170.928 155.306 170.928C155.866 170.928 156.218 171.104 156.602 171.296C156.698 171.328 156.778 171.344 156.858 171.344C157.162 171.344 157.402 171.088 157.402 170.8C157.402 170.048 155.93 169.824 155.178 169.824C153.178 169.824 152.314 171.12 152.314 172.768V175.184Z" fill="black"/>
<path d="M160.595 167.312C160.595 166.88 160.259 166.544 159.827 166.544C159.395 166.544 159.059 166.88 159.059 167.312C159.059 167.728 159.395 168.08 159.827 168.08C160.259 168.08 160.595 167.728 160.595 167.312ZM160.451 177.504V170.448C160.451 170.112 160.179 169.824 159.827 169.824C159.475 169.824 159.203 170.112 159.203 170.448V177.504C159.203 177.856 159.475 178.128 159.827 178.128C160.179 178.128 160.451 177.856 160.451 177.504Z" fill="black"/>
<path d="M168.101 180.496C168.101 180.272 167.909 180.064 167.669 180.064C167.493 180.064 167.381 180.144 166.997 180.144C166.517 180.144 166.293 179.824 166.293 179.424C166.293 178.96 166.389 178.24 166.901 177.936C167.413 177.632 167.957 177.504 167.957 177.088C167.957 176.8 167.717 176.528 167.397 176.528C167.285 176.528 167.205 176.56 167.173 176.576C166.613 176.832 166.181 177.024 165.509 177.024C164.357 177.024 163.765 176.448 163.765 175.552V174.608C164.325 174.704 164.917 174.752 165.397 174.752C167.301 174.752 168.101 173.856 168.101 172.384C168.101 170.8 167.221 169.776 165.445 169.776C163.541 169.776 162.517 170.944 162.517 172.48V175.472C162.517 176.976 163.557 178.128 165.365 178.128C165.477 178.128 165.605 178.112 165.749 178.112C165.413 178.592 165.221 179.152 165.221 179.68C165.221 180.672 165.877 181.12 166.869 181.12C167.365 181.12 168.101 181.04 168.101 180.496ZM166.869 172.384C166.869 173.04 166.661 173.696 165.445 173.696C165.125 173.696 164.357 173.664 163.765 173.584V172.368C163.765 171.472 164.373 170.912 165.413 170.912C166.341 170.912 166.869 171.344 166.869 172.384Z" fill="black"/>
<path d="M169.47 175.184C169.47 176.832 170.334 178.128 172.334 178.128C173.086 178.128 174.558 177.904 174.558 177.152C174.558 176.864 174.318 176.608 174.014 176.608C173.934 176.608 173.854 176.624 173.758 176.656C173.374 176.848 173.022 177.024 172.462 177.024C171.214 177.024 170.718 176.352 170.718 175.184V172.768C170.718 171.6 171.214 170.928 172.462 170.928C173.022 170.928 173.374 171.104 173.758 171.296C173.854 171.328 173.934 171.344 174.014 171.344C174.318 171.344 174.558 171.088 174.558 170.8C174.558 170.048 173.086 169.824 172.334 169.824C170.334 169.824 169.47 171.12 169.47 172.768V175.184Z" fill="black"/>
<path d="M177.751 167.312C177.751 166.88 177.415 166.544 176.983 166.544C176.551 166.544 176.215 166.88 176.215 167.312C176.215 167.728 176.551 168.08 176.983 168.08C177.415 168.08 177.751 167.728 177.751 167.312ZM177.607 177.504V170.448C177.607 170.112 177.335 169.824 176.983 169.824C176.631 169.824 176.359 170.112 176.359 170.448V177.504C176.359 177.856 176.631 178.128 176.983 178.128C177.335 178.128 177.607 177.856 177.607 177.504Z" fill="black"/>
<path d="M182.665 177.024C181.513 177.024 180.921 176.448 180.921 175.552V174.608C181.481 174.704 182.073 174.752 182.553 174.752C184.457 174.752 185.257 173.856 185.257 172.384C185.257 170.8 184.377 169.776 182.601 169.776C180.697 169.776 179.673 170.944 179.673 172.48V175.472C179.673 176.976 180.713 178.128 182.521 178.128C183.385 178.128 185.113 177.872 185.113 177.088C185.113 176.8 184.873 176.528 184.553 176.528C184.441 176.528 184.361 176.56 184.329 176.576C183.769 176.832 183.337 177.024 182.665 177.024ZM184.025 172.384C184.025 173.04 183.817 173.696 182.601 173.696C182.281 173.696 181.513 173.664 180.921 173.584V172.368C180.921 171.472 181.529 170.912 182.569 170.912C183.497 170.912 184.025 171.344 184.025 172.384Z" fill="black"/>
<path d="M195.906 177.504C195.906 177.84 196.114 178.112 196.53 178.112C196.946 178.112 197.154 177.84 197.154 177.504V172.496C197.154 170.88 196.21 169.776 194.482 169.776C193.586 169.776 192.834 170.08 192.162 170.592C191.762 170.064 191.186 169.776 190.306 169.776C189.474 169.776 188.674 170.048 187.97 170.496C187.81 170.24 187.602 170.064 187.33 170.064C186.994 170.064 186.738 170.304 186.738 170.624C186.738 170.784 186.818 170.88 186.85 170.944C186.994 171.184 187.138 171.184 187.138 172.064V177.504C187.138 177.84 187.346 178.112 187.762 178.112C188.178 178.112 188.386 177.84 188.386 177.504V172.064C188.386 171.92 188.37 171.76 188.338 171.568C188.786 171.232 189.49 170.928 190.194 170.928C191.33 170.928 191.522 171.728 191.522 172.864V177.504C191.522 177.84 191.73 178.112 192.146 178.112C192.562 178.112 192.77 177.84 192.77 177.504V172.496C192.77 172.24 192.738 172 192.69 171.776C193.074 171.296 193.762 170.928 194.45 170.928C195.426 170.928 195.906 171.632 195.906 172.528V177.504Z" fill="black"/>
<path d="M3.71197 202.128C5.66397 202.128 6.70397 200.88 6.70397 199.28V196.608C6.70397 195.008 5.66397 193.76 3.71197 193.76C1.75997 193.76 0.719971 195.008 0.719971 196.608V199.28C0.719971 200.88 1.75997 202.128 3.71197 202.128ZM3.71197 200.976C2.55997 200.976 1.96797 200.336 1.96797 199.28V196.592C1.96797 195.552 2.55997 194.912 3.71197 194.912C4.86397 194.912 5.45597 195.552 5.45597 196.592V199.28C5.45597 200.336 4.86397 200.976 3.71197 200.976Z" fill="black"/>
<path d="M10.8138 193.84C8.78185 193.84 8.14185 195.168 8.14185 197.072V199.104C8.14185 200.896 9.00585 202.128 10.6858 202.128C11.4858 202.128 12.2538 201.856 12.9578 201.504C13.1498 201.808 13.4378 202.016 13.8058 202.016C14.0778 202.016 14.3658 201.792 14.3658 201.456C14.3658 201.312 14.3178 201.232 14.2538 201.136C13.9338 200.896 13.8378 200.624 13.8378 200.176V191.008C13.8378 190.672 13.6138 190.4 13.2138 190.4C12.8138 190.4 12.5898 190.672 12.5898 191.008V194.144C12.0138 193.952 11.3418 193.84 10.8138 193.84ZM12.5898 200.176C12.5898 200.288 12.5898 200.416 12.6218 200.544C12.0778 200.832 11.4538 201.008 10.9418 201.008C9.88585 201.008 9.38985 200.352 9.38985 199.104V197.072C9.38985 195.584 9.80585 194.928 10.9738 194.928C11.3578 194.928 12.0618 195.04 12.5898 195.264V200.176Z" fill="black"/>
<path d="M30.0952 194.56C30.0952 194.528 30.1112 194.48 30.1112 194.448C30.1112 194.096 29.8232 193.824 29.5032 193.824C29.2312 193.824 28.9912 194.016 28.9272 194.272L27.4392 200.16C26.9432 198.224 26.4472 196.336 25.9832 194.384C25.9032 194.064 25.6632 193.824 25.2952 193.824C24.9112 193.824 24.6552 194.064 24.5752 194.384C24.0952 196.336 23.6312 198.224 23.1352 200.16L21.6312 194.272C21.5512 193.984 21.3112 193.824 21.0552 193.824C20.7032 193.824 20.4312 194.112 20.4312 194.416C20.4312 194.448 20.4312 194.48 20.4472 194.512L22.3032 201.408C22.4312 201.856 22.6712 202.128 23.1032 202.128C23.5032 202.128 23.7432 201.968 23.8552 201.584L25.2792 195.968L26.7192 201.584C26.8152 201.936 27.1192 202.128 27.4552 202.128C27.9192 202.128 28.1112 201.888 28.2552 201.408L30.0952 194.56Z" fill="black"/>
<path d="M31.3011 196.08C31.3011 198.192 33.4291 198.304 34.4371 198.848C34.7571 199.024 35.0291 199.264 35.0291 199.84C35.0291 200.672 34.4371 201.024 33.5571 201.024C32.9171 201.024 32.4051 200.832 31.9571 200.656C31.9091 200.64 31.8931 200.624 31.7971 200.624C31.4131 200.624 31.2051 200.928 31.2051 201.2C31.2051 201.936 32.7411 202.128 33.5571 202.128C35.3331 202.128 36.2451 201.232 36.2451 199.792C36.2451 197.712 34.3731 197.568 33.2691 197.024C32.7251 196.752 32.5171 196.496 32.5171 196C32.5171 195.264 32.9651 194.88 33.9411 194.88C34.5171 194.88 34.8211 195.008 35.1571 195.168C35.2531 195.216 35.3331 195.248 35.4451 195.248C35.7811 195.248 36.0211 194.976 36.0211 194.672C36.0211 194 34.7251 193.776 33.8931 193.776C32.1971 193.776 31.3011 194.704 31.3011 196.08Z" fill="black"/>
<path d="M42.9345 194.56C42.9345 194.16 42.6305 193.92 42.2785 193.92H38.0385C37.7185 193.92 37.4625 194.16 37.4625 194.496C37.4625 194.816 37.7185 195.072 38.0385 195.072H41.3825L37.4145 200.928C37.3345 201.056 37.3025 201.2 37.3025 201.328C37.3025 201.712 37.6065 202 37.9425 202H42.3745C42.7105 202 42.9665 201.744 42.9665 201.424C42.9665 201.104 42.7105 200.848 42.3745 200.848H38.8385L42.7905 195.008C42.8865 194.864 42.9345 194.704 42.9345 194.56Z" fill="black"/>
<path d="M50.0395 194.64C50.0555 194.576 50.0715 194.512 50.0715 194.448C50.0715 194.08 49.7675 193.824 49.4475 193.824C49.2075 193.824 48.9675 193.968 48.8715 194.24L47.1275 200.304L45.1275 194.24C45.0315 193.968 44.8075 193.824 44.5675 193.824C44.2155 193.824 43.9435 194.064 43.9435 194.4C43.9435 194.464 43.9435 194.576 43.9755 194.624L46.5195 201.968C46.0395 203.456 45.5915 204 44.5835 204.048C44.2155 204.064 43.9915 204.352 43.9915 204.64C43.9915 204.992 44.2635 205.248 44.6315 205.248C46.7115 205.2 47.3195 203.488 48.0875 200.992L50.0395 194.64Z" fill="black"/>
<path d="M51.1292 196.08C51.1292 198.192 53.2572 198.304 54.2652 198.848C54.5852 199.024 54.8572 199.264 54.8572 199.84C54.8572 200.672 54.2652 201.024 53.3852 201.024C52.7452 201.024 52.2332 200.832 51.7852 200.656C51.7372 200.64 51.7212 200.624 51.6252 200.624C51.2412 200.624 51.0332 200.928 51.0332 201.2C51.0332 201.936 52.5692 202.128 53.3852 202.128C55.1612 202.128 56.0732 201.232 56.0732 199.792C56.0732 197.712 54.2012 197.568 53.0972 197.024C52.5532 196.752 52.3452 196.496 52.3452 196C52.3452 195.264 52.7932 194.88 53.7692 194.88C54.3452 194.88 54.6492 195.008 54.9852 195.168C55.0812 195.216 55.1612 195.248 55.2732 195.248C55.6092 195.248 55.8492 194.976 55.8492 194.672C55.8492 194 54.5532 193.776 53.7212 193.776C52.0252 193.776 51.1292 194.704 51.1292 196.08Z" fill="black"/>
<path d="M57.7152 198.752C57.7152 200.96 58.2592 202.064 60.4992 202.064C60.9472 202.064 61.4112 202 61.4112 201.456C61.4112 200.944 60.9472 200.88 60.5792 200.88C60.4832 200.88 60.3712 200.896 60.2752 200.896C59.1232 200.896 58.9632 200.288 58.9632 198.64V195.456H60.6272C60.9472 195.456 61.2032 195.2 61.2032 194.864C61.2032 194.528 60.9472 194.272 60.6272 194.272H58.9632V192.064C58.9632 191.728 58.7392 191.456 58.3392 191.456C57.9392 191.456 57.7152 191.728 57.7152 192.064V198.752Z" fill="black"/>
<path d="M64.1038 191.024C64.1038 190.672 63.8318 190.4 63.4798 190.4C63.1278 190.4 62.8558 190.672 62.8558 191.024V201.504C62.8558 201.856 63.1278 202.128 63.4798 202.128C63.8318 202.128 64.1038 201.856 64.1038 201.504V198.64L64.6798 198.048L67.1598 201.824C67.2878 202.032 67.4638 202.128 67.6718 202.128C67.9918 202.128 68.2478 201.92 68.2638 201.6C68.2638 201.488 68.2318 201.328 68.1678 201.232L65.4638 197.232L67.8158 194.832C67.9278 194.72 67.9758 194.576 67.9758 194.416C67.9758 194.096 67.7198 193.84 67.3838 193.84C67.2398 193.84 67.0798 193.888 66.9998 193.984L64.1038 196.992V191.024Z" fill="black"/>
<path d="M71.2512 191.312C71.2512 190.88 70.9152 190.544 70.4832 190.544C70.0512 190.544 69.7152 190.88 69.7152 191.312C69.7152 191.728 70.0512 192.08 70.4832 192.08C70.9152 192.08 71.2512 191.728 71.2512 191.312ZM71.1072 201.504V194.448C71.1072 194.112 70.8352 193.824 70.4832 193.824C70.1312 193.824 69.8592 194.112 69.8592 194.448V201.504C69.8592 201.856 70.1312 202.128 70.4832 202.128C70.8352 202.128 71.1072 201.856 71.1072 201.504Z" fill="black"/>
<path d="M76.1651 201.024C75.0131 201.024 74.4211 200.448 74.4211 199.552V198.608C74.9811 198.704 75.5731 198.752 76.0531 198.752C77.9571 198.752 78.7571 197.856 78.7571 196.384C78.7571 194.8 77.8771 193.776 76.1011 193.776C74.1971 193.776 73.1731 194.944 73.1731 196.48V199.472C73.1731 200.976 74.2131 202.128 76.0211 202.128C76.8851 202.128 78.6131 201.872 78.6131 201.088C78.6131 200.8 78.3731 200.528 78.0531 200.528C77.9411 200.528 77.8611 200.56 77.8291 200.576C77.2691 200.832 76.8371 201.024 76.1651 201.024ZM77.5251 196.384C77.5251 197.04 77.3171 197.696 76.1011 197.696C75.7811 197.696 75.0131 197.664 74.4211 197.584V196.368C74.4211 195.472 75.0291 194.912 76.0691 194.912C76.9971 194.912 77.5251 195.344 77.5251 196.384Z" fill="black"/>
<path d="M83.071 193.776C81.151 193.776 80.207 195.04 80.207 196.704C80.207 197.648 80.511 198.432 81.071 198.96C80.591 199.392 80.463 199.888 80.463 200.272C80.463 200.64 80.575 201.136 80.943 201.504C80.399 202.032 80.095 202.64 80.095 203.424C80.095 204.976 81.359 205.888 83.167 205.888C85.055 205.888 86.447 204.896 86.447 203.28C86.447 201.68 85.071 200.928 83.247 200.928H82.575C82.223 200.928 81.711 200.784 81.711 200.224C81.711 200.032 81.759 199.76 81.903 199.488C82.271 199.632 82.687 199.696 83.167 199.696C85.087 199.696 86.063 198.448 86.063 196.816V195.824C86.063 195.04 86.319 194.864 86.927 194.272C86.975 194.224 87.039 194.112 87.039 193.952C87.039 193.632 86.783 193.392 86.447 193.392C86.095 193.392 85.519 193.664 85.167 194.32C84.559 193.968 83.807 193.776 83.071 193.776ZM84.815 195.84V196.848C84.815 197.904 84.303 198.544 83.167 198.544C81.967 198.544 81.455 197.824 81.455 196.736C81.455 195.552 82.047 194.896 83.231 194.896C83.823 194.896 84.351 195.072 84.847 195.376C84.831 195.52 84.815 195.68 84.815 195.84ZM82.607 202.08H83.279C84.559 202.08 85.199 202.464 85.199 203.312C85.199 204.272 84.351 204.736 83.199 204.736C81.967 204.736 81.343 204.208 81.343 203.248C81.343 202.736 81.503 202.336 81.887 202C82.095 202.048 82.335 202.08 82.607 202.08Z" fill="black"/>
<path d="M90.7901 202.128C92.7421 202.128 93.7821 200.88 93.7821 199.28V196.608C93.7821 195.008 92.7421 193.76 90.7901 193.76C88.8381 193.76 87.7981 195.008 87.7981 196.608V199.28C87.7981 200.88 88.8381 202.128 90.7901 202.128ZM90.7901 200.976C89.6381 200.976 89.0461 200.336 89.0461 199.28V196.592C89.0461 195.552 89.6381 194.912 90.7901 194.912C91.9421 194.912 92.5341 195.552 92.5341 196.592V199.28C92.5341 200.336 91.9421 200.976 90.7901 200.976Z" fill="black"/>
<path d="M96.938 201.28C96.938 200.816 96.554 200.432 96.09 200.432C95.61 200.432 95.226 200.816 95.226 201.28C95.226 201.744 95.562 202.112 96.01 202.16C95.818 202.832 95.418 203.12 95.418 203.632C95.418 203.84 95.562 203.904 95.722 203.904C96.154 203.904 96.938 202.352 96.938 201.28Z" fill="black"/>
<path d="M103.454 199.184C103.454 200.832 104.318 202.128 106.318 202.128C107.07 202.128 108.542 201.904 108.542 201.152C108.542 200.864 108.302 200.608 107.998 200.608C107.918 200.608 107.838 200.624 107.742 200.656C107.358 200.848 107.006 201.024 106.446 201.024C105.198 201.024 104.702 200.352 104.702 199.184V196.768C104.702 195.6 105.198 194.928 106.446 194.928C107.006 194.928 107.358 195.104 107.742 195.296C107.838 195.328 107.918 195.344 107.998 195.344C108.302 195.344 108.542 195.088 108.542 194.8C108.542 194.048 107.07 193.824 106.318 193.824C104.318 193.824 103.454 195.12 103.454 196.768V199.184Z" fill="black"/>
<path d="M112.649 202.128C114.601 202.128 115.641 200.88 115.641 199.28V196.608C115.641 195.008 114.601 193.76 112.649 193.76C110.697 193.76 109.657 195.008 109.657 196.608V199.28C109.657 200.88 110.697 202.128 112.649 202.128ZM112.649 200.976C111.497 200.976 110.905 200.336 110.905 199.28V196.592C110.905 195.552 111.497 194.912 112.649 194.912C113.801 194.912 114.393 195.552 114.393 196.592V199.28C114.393 200.336 113.801 200.976 112.649 200.976Z" fill="black"/>
<path d="M127.028 194.56C127.028 194.16 126.724 193.92 126.372 193.92H122.132C121.812 193.92 121.556 194.16 121.556 194.496C121.556 194.816 121.812 195.072 122.132 195.072H125.476L121.508 200.928C121.428 201.056 121.396 201.2 121.396 201.328C121.396 201.712 121.7 202 122.036 202H126.468C126.804 202 127.06 201.744 127.06 201.424C127.06 201.104 126.804 200.848 126.468 200.848H122.932L126.884 195.008C126.98 194.864 127.028 194.704 127.028 194.56Z" fill="black"/>
<path d="M129.217 200.496C129.217 201.936 129.825 202.128 130.225 202.128C130.545 202.128 130.801 201.872 130.801 201.552C130.801 201.424 130.737 201.312 130.689 201.248C130.497 201.056 130.465 200.848 130.465 200.496V196.496L132.113 195.408C132.273 195.296 132.369 195.12 132.369 194.944C132.369 194.88 132.353 194.816 132.337 194.752C132.257 194.512 132.033 194.352 131.809 194.352C131.601 194.352 131.489 194.416 131.345 194.512L130.465 195.088V191.024C130.465 190.672 130.193 190.4 129.841 190.4C129.489 190.4 129.217 190.688 129.217 191.024V195.92L127.809 196.832C127.633 196.944 127.537 197.136 127.537 197.312C127.537 197.728 127.857 197.92 128.193 197.92C128.321 197.92 128.449 197.824 128.561 197.744L129.217 197.312V200.496Z" fill="black"/>
<path d="M136.399 201.024C135.247 201.024 134.655 200.448 134.655 199.552V198.608C135.215 198.704 135.807 198.752 136.287 198.752C138.191 198.752 138.991 197.856 138.991 196.384C138.991 194.8 138.111 193.776 136.335 193.776C134.431 193.776 133.407 194.944 133.407 196.48V199.472C133.407 200.976 134.447 202.128 136.255 202.128C137.119 202.128 138.847 201.872 138.847 201.088C138.847 200.8 138.607 200.528 138.287 200.528C138.175 200.528 138.095 200.56 138.063 200.576C137.503 200.832 137.071 201.024 136.399 201.024ZM137.759 196.384C137.759 197.04 137.551 197.696 136.335 197.696C136.015 197.696 135.247 197.664 134.655 197.584V196.368C134.655 195.472 135.263 194.912 136.303 194.912C137.231 194.912 137.759 195.344 137.759 196.384Z" fill="black"/>
<path d="M147.829 193.84C145.797 193.84 145.157 195.168 145.157 197.072V199.104C145.157 200.896 146.021 202.128 147.701 202.128C148.501 202.128 149.269 201.856 149.973 201.504C150.165 201.808 150.453 202.016 150.821 202.016C151.093 202.016 151.381 201.792 151.381 201.456C151.381 201.312 151.333 201.232 151.269 201.136C150.949 200.896 150.853 200.624 150.853 200.176V191.008C150.853 190.672 150.629 190.4 150.229 190.4C149.829 190.4 149.605 190.672 149.605 191.008V194.144C149.029 193.952 148.357 193.84 147.829 193.84ZM149.605 200.176C149.605 200.288 149.605 200.416 149.637 200.544C149.093 200.832 148.469 201.008 147.957 201.008C146.901 201.008 146.405 200.352 146.405 199.104V197.072C146.405 195.584 146.821 194.928 147.989 194.928C148.373 194.928 149.077 195.04 149.605 195.264V200.176Z" fill="black"/>
<path d="M155.962 202.128C157.914 202.128 158.954 200.88 158.954 199.28V196.608C158.954 195.008 157.914 193.76 155.962 193.76C154.01 193.76 152.97 195.008 152.97 196.608V199.28C152.97 200.88 154.01 202.128 155.962 202.128ZM155.962 200.976C154.81 200.976 154.218 200.336 154.218 199.28V196.592C154.218 195.552 154.81 194.912 155.962 194.912C157.114 194.912 157.706 195.552 157.706 196.592V199.28C157.706 200.336 157.114 200.976 155.962 200.976Z" fill="black"/>
<path d="M163.384 202.128C165.336 202.128 166.376 200.88 166.376 199.28V196.608C166.376 195.008 165.336 193.76 163.384 193.76C161.432 193.76 160.392 195.008 160.392 196.608V199.28C160.392 200.88 161.432 202.128 163.384 202.128ZM163.384 200.976C162.232 200.976 161.64 200.336 161.64 199.28V196.592C161.64 195.552 162.232 194.912 163.384 194.912C164.536 194.912 165.128 195.552 165.128 196.592V199.28C165.128 200.336 164.536 200.976 163.384 200.976Z" fill="black"/>
<path d="M169.526 191.024C169.526 190.672 169.254 190.4 168.902 190.4C168.55 190.4 168.278 190.672 168.278 191.024V201.504C168.278 201.856 168.55 202.128 168.902 202.128C169.254 202.128 169.526 201.856 169.526 201.504V198.64L170.102 198.048L172.582 201.824C172.71 202.032 172.886 202.128 173.094 202.128C173.414 202.128 173.67 201.92 173.686 201.6C173.686 201.488 173.654 201.328 173.59 201.232L170.886 197.232L173.238 194.832C173.35 194.72 173.398 194.576 173.398 194.416C173.398 194.096 173.142 193.84 172.806 193.84C172.662 193.84 172.502 193.888 172.422 193.984L169.526 196.992V191.024Z" fill="black"/>
<path d="M177.649 202.128C179.601 202.128 180.641 200.88 180.641 199.28V196.608C180.641 195.008 179.601 193.76 177.649 193.76C175.697 193.76 174.657 195.008 174.657 196.608V199.28C174.657 200.88 175.697 202.128 177.649 202.128ZM177.649 200.976C176.497 200.976 175.905 200.336 175.905 199.28V196.592C175.905 195.552 176.497 194.912 177.649 194.912C178.801 194.912 179.393 195.552 179.393 196.592V199.28C179.393 200.336 178.801 200.976 177.649 200.976Z" fill="black"/>
<path d="M183.279 200.496C183.279 201.936 183.887 202.128 184.287 202.128C184.607 202.128 184.863 201.872 184.863 201.552C184.863 201.424 184.799 201.312 184.751 201.248C184.559 201.056 184.527 200.848 184.527 200.496V196.496L186.175 195.408C186.335 195.296 186.431 195.12 186.431 194.944C186.431 194.88 186.415 194.816 186.399 194.752C186.319 194.512 186.095 194.352 185.871 194.352C185.663 194.352 185.551 194.416 185.407 194.512L184.527 195.088V191.024C184.527 190.672 184.255 190.4 183.903 190.4C183.551 190.4 183.279 190.688 183.279 191.024V195.92L181.871 196.832C181.695 196.944 181.599 197.136 181.599 197.312C181.599 197.728 181.919 197.92 182.255 197.92C182.383 197.92 182.511 197.824 182.623 197.744L183.279 197.312V200.496Z" fill="black"/>
<path d="M191.902 197.504C191.406 197.36 190.862 197.28 190.286 197.28C188.398 197.28 187.47 198.08 187.47 199.648V199.712C187.47 201.152 188.27 202.128 189.918 202.128C190.782 202.128 191.502 201.84 192.11 201.28C192.35 201.776 192.782 202.08 193.31 202.08C193.662 202.08 194.03 201.936 194.03 201.536C194.03 201.264 193.87 200.992 193.566 200.992C193.502 200.992 193.486 201.008 193.438 201.008C193.246 201.008 193.15 200.848 193.15 200.528V197.008C193.15 194.896 192.35 193.776 190.35 193.776C189.246 193.776 188.046 194.08 188.11 194.816C188.126 195.056 188.254 195.344 188.558 195.344C188.734 195.344 188.926 195.232 188.974 195.216C189.326 195.024 189.63 194.88 190.19 194.88C191.342 194.88 191.902 195.424 191.902 196.592V197.504ZM190.27 198.336C190.75 198.336 191.374 198.416 191.902 198.576V200.304C191.342 200.784 190.798 201.008 190.11 201.008C189.038 201.008 188.702 200.48 188.702 199.728V199.664C188.702 198.944 188.958 198.336 190.27 198.336Z" fill="black"/>
<path d="M197.157 201.28C197.157 200.816 196.773 200.432 196.309 200.432C195.829 200.432 195.445 200.816 195.445 201.28C195.445 201.76 195.829 202.16 196.309 202.16C196.773 202.16 197.157 201.76 197.157 201.28Z" fill="black"/>
<path d="M7.71197 226.16C8.12797 226.16 8.41597 225.84 8.41597 225.456V215.216C8.41597 214.864 8.14397 214.56 7.79197 214.56C7.43997 214.56 7.13597 214.864 7.13597 215.216V223.456L2.52797 214.944C2.39997 214.704 2.12797 214.56 1.85597 214.56C1.45597 214.56 1.16797 214.864 1.16797 215.264V225.504C1.16797 225.856 1.43997 226.16 1.79197 226.16C2.14397 226.16 2.44797 225.856 2.44797 225.504V217.264L7.05597 225.792C7.18397 226.016 7.45597 226.16 7.71197 226.16Z" fill="black"/>
<path d="M12.3137 215.312C12.3137 214.88 11.9777 214.544 11.5457 214.544C11.1137 214.544 10.7777 214.88 10.7777 215.312C10.7777 215.728 11.1137 216.08 11.5457 216.08C11.9777 216.08 12.3137 215.728 12.3137 215.312ZM12.1697 225.504V218.448C12.1697 218.112 11.8977 217.824 11.5457 217.824C11.1937 217.824 10.9217 218.112 10.9217 218.448V225.504C10.9217 225.856 11.1937 226.128 11.5457 226.128C11.8977 226.128 12.1697 225.856 12.1697 225.504Z" fill="black"/>
<path d="M17.2276 225.024C16.0756 225.024 15.4836 224.448 15.4836 223.552V222.608C16.0436 222.704 16.6356 222.752 17.1156 222.752C19.0196 222.752 19.8196 221.856 19.8196 220.384C19.8196 218.8 18.9396 217.776 17.1636 217.776C15.2596 217.776 14.2356 218.944 14.2356 220.48V223.472C14.2356 224.976 15.2756 226.128 17.0836 226.128C17.9476 226.128 19.6756 225.872 19.6756 225.088C19.6756 224.8 19.4356 224.528 19.1156 224.528C19.0036 224.528 18.9236 224.56 18.8916 224.576C18.3316 224.832 17.8996 225.024 17.2276 225.024ZM18.5876 220.384C18.5876 221.04 18.3796 221.696 17.1636 221.696C16.8436 221.696 16.0756 221.664 15.4836 221.584V220.368C15.4836 219.472 16.0916 218.912 17.1316 218.912C18.0596 218.912 18.5876 219.344 18.5876 220.384Z" fill="black"/>
<path d="M21.1887 223.184C21.1887 224.832 22.0527 226.128 24.0527 226.128C24.8047 226.128 26.2767 225.904 26.2767 225.152C26.2767 224.864 26.0367 224.608 25.7327 224.608C25.6527 224.608 25.5727 224.624 25.4767 224.656C25.0927 224.848 24.7407 225.024 24.1807 225.024C22.9327 225.024 22.4367 224.352 22.4367 223.184V220.768C22.4367 219.6 22.9327 218.928 24.1807 218.928C24.7407 218.928 25.0927 219.104 25.4767 219.296C25.5727 219.328 25.6527 219.344 25.7327 219.344C26.0367 219.344 26.2767 219.088 26.2767 218.8C26.2767 218.048 24.8047 217.824 24.0527 217.824C22.0527 217.824 21.1887 219.12 21.1887 220.768V223.184Z" fill="black"/>
<path d="M29.041 225.504V219.856C29.505 219.232 30.241 218.944 30.897 218.944C31.889 218.944 32.289 219.472 32.289 220.448V225.504C32.289 225.856 32.561 226.128 32.913 226.128C33.249 226.128 33.537 225.856 33.537 225.504V220.432C33.537 218.88 32.753 217.776 31.041 217.776C30.273 217.776 29.585 218.032 29.041 218.448V214.928C29.041 214.576 28.769 214.304 28.417 214.304C28.065 214.304 27.809 214.608 27.809 214.928V225.504C27.809 225.856 28.081 226.128 28.433 226.128C28.785 226.128 29.041 225.856 29.041 225.504Z" fill="black"/>
<path d="M42.0112 220.064C42.0112 219.936 41.9952 219.776 41.9632 219.6C42.5072 219.184 43.1152 218.928 43.7392 218.928C44.6992 218.928 45.2112 219.616 45.2112 220.832V225.504C45.2112 225.84 45.4352 226.112 45.8352 226.112C46.2352 226.112 46.4592 225.84 46.4592 225.504V220.832C46.4592 219.024 45.6112 217.808 43.9152 217.808C43.1472 217.808 42.3312 218.032 41.6272 218.528C41.4512 218.256 41.2432 218.064 40.9552 218.064C40.6192 218.064 40.3632 218.304 40.3632 218.624C40.3632 218.784 40.4432 218.88 40.4752 218.944C40.6192 219.184 40.7632 219.184 40.7632 220.064V225.504C40.7632 225.84 40.9712 226.112 41.3872 226.112C41.8032 226.112 42.0112 225.84 42.0112 225.504V220.064Z" fill="black"/>
<path d="M52.8238 221.504C52.3278 221.36 51.7838 221.28 51.2078 221.28C49.3198 221.28 48.3918 222.08 48.3918 223.648V223.712C48.3918 225.152 49.1918 226.128 50.8398 226.128C51.7038 226.128 52.4238 225.84 53.0318 225.28C53.2718 225.776 53.7038 226.08 54.2318 226.08C54.5838 226.08 54.9518 225.936 54.9518 225.536C54.9518 225.264 54.7918 224.992 54.4878 224.992C54.4238 224.992 54.4078 225.008 54.3598 225.008C54.1678 225.008 54.0718 224.848 54.0718 224.528V221.008C54.0718 218.896 53.2718 217.776 51.2718 217.776C50.1678 217.776 48.9678 218.08 49.0318 218.816C49.0478 219.056 49.1758 219.344 49.4798 219.344C49.6558 219.344 49.8478 219.232 49.8958 219.216C50.2478 219.024 50.5518 218.88 51.1118 218.88C52.2638 218.88 52.8238 219.424 52.8238 220.592V221.504ZM51.1918 222.336C51.6718 222.336 52.2958 222.416 52.8238 222.576V224.304C52.2638 224.784 51.7198 225.008 51.0318 225.008C49.9598 225.008 49.6238 224.48 49.6238 223.728V223.664C49.6238 222.944 49.8798 222.336 51.1918 222.336Z" fill="black"/>
<path d="M56.3636 220.08C56.3636 222.192 58.4916 222.304 59.4996 222.848C59.8196 223.024 60.0916 223.264 60.0916 223.84C60.0916 224.672 59.4996 225.024 58.6196 225.024C57.9796 225.024 57.4676 224.832 57.0196 224.656C56.9716 224.64 56.9556 224.624 56.8596 224.624C56.4756 224.624 56.2676 224.928 56.2676 225.2C56.2676 225.936 57.8036 226.128 58.6196 226.128C60.3956 226.128 61.3076 225.232 61.3076 223.792C61.3076 221.712 59.4356 221.568 58.3316 221.024C57.7876 220.752 57.5796 220.496 57.5796 220C57.5796 219.264 58.0276 218.88 59.0036 218.88C59.5796 218.88 59.8836 219.008 60.2196 219.168C60.3156 219.216 60.3956 219.248 60.5076 219.248C60.8436 219.248 61.0836 218.976 61.0836 218.672C61.0836 218 59.7876 217.776 58.9556 217.776C57.2596 217.776 56.3636 218.704 56.3636 220.08Z" fill="black"/>
<path d="M68.4926 218.64C68.5086 218.576 68.5246 218.512 68.5246 218.448C68.5246 218.08 68.2206 217.824 67.9006 217.824C67.6606 217.824 67.4206 217.968 67.3246 218.24L65.5806 224.304L63.5806 218.24C63.4846 217.968 63.2606 217.824 63.0206 217.824C62.6686 217.824 62.3966 218.064 62.3966 218.4C62.3966 218.464 62.3966 218.576 62.4286 218.624L64.9726 225.968C64.4926 227.456 64.0446 228 63.0366 228.048C62.6686 228.064 62.4446 228.352 62.4446 228.64C62.4446 228.992 62.7166 229.248 63.0846 229.248C65.1646 229.2 65.7726 227.488 66.5406 224.992L68.4926 218.64Z" fill="black"/>
<path d="M69.4543 223.184C69.4543 224.832 70.3183 226.128 72.3183 226.128C73.0703 226.128 74.5423 225.904 74.5423 225.152C74.5423 224.864 74.3023 224.608 73.9983 224.608C73.9183 224.608 73.8383 224.624 73.7423 224.656C73.3583 224.848 73.0063 225.024 72.4463 225.024C71.1983 225.024 70.7023 224.352 70.7023 223.184V220.768C70.7023 219.6 71.1983 218.928 72.4463 218.928C73.0063 218.928 73.3583 219.104 73.7423 219.296C73.8383 219.328 73.9183 219.344 73.9983 219.344C74.3023 219.344 74.5423 219.088 74.5423 218.8C74.5423 218.048 73.0703 217.824 72.3183 217.824C70.3183 217.824 69.4543 219.12 69.4543 220.768V223.184Z" fill="black"/>
<path d="M83.3036 228.496C83.3036 228.272 83.1116 228.064 82.8716 228.064C82.6956 228.064 82.5836 228.144 82.1996 228.144C81.7196 228.144 81.4956 227.824 81.4956 227.424C81.4956 226.976 81.6556 226.336 81.9916 226C82.1356 225.872 82.2956 225.776 82.2956 225.536C82.2956 225.264 82.1356 224.992 81.8316 224.992C81.7676 224.992 81.7516 225.008 81.7036 225.008C81.5116 225.008 81.4156 224.848 81.4156 224.528V221.008C81.4156 218.896 80.6156 217.776 78.6156 217.776C77.5116 217.776 76.3116 218.08 76.3756 218.816C76.3916 219.056 76.5196 219.344 76.8236 219.344C76.9996 219.344 77.1916 219.232 77.2396 219.216C77.5916 219.024 77.8956 218.88 78.4556 218.88C79.6076 218.88 80.1676 219.424 80.1676 220.592V221.504C79.6716 221.36 79.1276 221.28 78.5516 221.28C76.6636 221.28 75.7356 222.08 75.7356 223.648V223.712C75.7356 225.152 76.5356 226.128 78.1836 226.128C79.0476 226.128 79.7676 225.84 80.3756 225.28C80.5356 225.616 80.7756 225.856 81.0796 225.984C80.6796 226.512 80.4236 227.12 80.4236 227.68C80.4236 228.672 81.0796 229.12 82.0716 229.12C82.5676 229.12 83.3036 229.04 83.3036 228.496ZM78.5356 222.336C79.0156 222.336 79.6396 222.416 80.1676 222.576V224.304C79.6076 224.784 79.0636 225.008 78.3756 225.008C77.3036 225.008 76.9676 224.48 76.9676 223.728V223.664C76.9676 222.944 77.2236 222.336 78.5356 222.336Z" fill="black"/>
<path d="M88.2512 222.064C88.2512 224.528 89.3872 226.144 91.8512 226.144C93.3072 226.144 94.6832 225.52 94.6832 224.768C94.6832 224.464 94.4432 224.208 94.1072 224.208C93.8832 224.208 93.8032 224.32 93.5312 224.48C93.0512 224.816 92.5552 224.976 91.9312 224.976C90.1232 224.976 89.5312 223.856 89.5312 222.064V218.64C89.5312 216.848 90.1232 215.728 91.9312 215.728C92.5552 215.728 93.0512 215.888 93.5312 216.224C93.7872 216.384 93.8832 216.496 94.1072 216.496C94.4432 216.496 94.6832 216.24 94.6832 215.936C94.6832 215.184 93.3072 214.56 91.8512 214.56C89.3872 214.56 88.2512 216.176 88.2512 218.64V222.064Z" fill="black"/>
<path d="M97.97 215.312C97.97 214.88 97.634 214.544 97.202 214.544C96.77 214.544 96.434 214.88 96.434 215.312C96.434 215.728 96.77 216.08 97.202 216.08C97.634 216.08 97.97 215.728 97.97 215.312ZM97.826 225.504V218.448C97.826 218.112 97.554 217.824 97.202 217.824C96.85 217.824 96.578 218.112 96.578 218.448V225.504C96.578 225.856 96.85 226.128 97.202 226.128C97.554 226.128 97.826 225.856 97.826 225.504Z" fill="black"/>
<path d="M105.476 228.496C105.476 228.272 105.284 228.064 105.044 228.064C104.868 228.064 104.756 228.144 104.372 228.144C103.892 228.144 103.668 227.824 103.668 227.424C103.668 226.96 103.764 226.24 104.276 225.936C104.788 225.632 105.332 225.504 105.332 225.088C105.332 224.8 105.092 224.528 104.772 224.528C104.66 224.528 104.58 224.56 104.548 224.576C103.988 224.832 103.556 225.024 102.884 225.024C101.732 225.024 101.14 224.448 101.14 223.552V222.608C101.7 222.704 102.292 222.752 102.772 222.752C104.676 222.752 105.476 221.856 105.476 220.384C105.476 218.8 104.596 217.776 102.82 217.776C100.916 217.776 99.8918 218.944 99.8918 220.48V223.472C99.8918 224.976 100.932 226.128 102.74 226.128C102.852 226.128 102.98 226.112 103.124 226.112C102.788 226.592 102.596 227.152 102.596 227.68C102.596 228.672 103.252 229.12 104.244 229.12C104.74 229.12 105.476 229.04 105.476 228.496ZM104.244 220.384C104.244 221.04 104.036 221.696 102.82 221.696C102.5 221.696 101.732 221.664 101.14 221.584V220.368C101.14 219.472 101.748 218.912 102.788 218.912C103.716 218.912 104.244 219.344 104.244 220.384Z" fill="black"/>
<path d="M111.642 223.184C111.642 224.832 112.506 226.128 114.506 226.128C115.258 226.128 116.73 225.904 116.73 225.152C116.73 224.864 116.49 224.608 116.186 224.608C116.106 224.608 116.026 224.624 115.93 224.656C115.546 224.848 115.194 225.024 114.634 225.024C113.386 225.024 112.89 224.352 112.89 223.184V220.768C112.89 219.6 113.386 218.928 114.634 218.928C115.194 218.928 115.546 219.104 115.93 219.296C116.026 219.328 116.106 219.344 116.186 219.344C116.49 219.344 116.73 219.088 116.73 218.8C116.73 218.048 115.258 217.824 114.506 217.824C112.506 217.824 111.642 219.12 111.642 220.768V223.184Z" fill="black"/>
<path d="M119.923 215.312C119.923 214.88 119.587 214.544 119.155 214.544C118.723 214.544 118.387 214.88 118.387 215.312C118.387 215.728 118.723 216.08 119.155 216.08C119.587 216.08 119.923 215.728 119.923 215.312ZM119.779 225.504V218.448C119.779 218.112 119.507 217.824 119.155 217.824C118.803 217.824 118.531 218.112 118.531 218.448V225.504C118.531 225.856 118.803 226.128 119.155 226.128C119.507 226.128 119.779 225.856 119.779 225.504Z" fill="black"/>
<path d="M124.837 225.024C123.685 225.024 123.093 224.448 123.093 223.552V222.608C123.653 222.704 124.245 222.752 124.725 222.752C126.629 222.752 127.429 221.856 127.429 220.384C127.429 218.8 126.549 217.776 124.773 217.776C122.869 217.776 121.845 218.944 121.845 220.48V223.472C121.845 224.976 122.885 226.128 124.693 226.128C125.557 226.128 127.285 225.872 127.285 225.088C127.285 224.8 127.045 224.528 126.725 224.528C126.613 224.528 126.533 224.56 126.501 224.576C125.941 224.832 125.509 225.024 124.837 225.024ZM126.197 220.384C126.197 221.04 125.989 221.696 124.773 221.696C124.453 221.696 123.685 221.664 123.093 221.584V220.368C123.093 219.472 123.701 218.912 124.741 218.912C125.669 218.912 126.197 219.344 126.197 220.384Z" fill="black"/>
<path d="M132.334 226.112C134.366 226.112 135.006 224.784 135.006 222.88V220.8C135.006 219.008 134.142 217.776 132.462 217.776C131.63 217.776 130.846 218.096 130.126 218.48C129.966 218.256 129.758 218.096 129.502 218.096C129.23 218.096 128.942 218.32 128.942 218.656C128.942 218.8 128.99 218.88 129.054 218.976C129.246 219.264 129.31 219.568 129.31 220.096V228.832C129.31 229.168 129.534 229.44 129.934 229.44C130.334 229.44 130.558 229.168 130.558 228.832V225.808C131.134 226 131.79 226.112 132.334 226.112ZM130.558 220.096C130.558 219.904 130.526 219.68 130.478 219.44C131.022 219.104 131.662 218.896 132.206 218.896C133.262 218.896 133.758 219.552 133.758 220.8V222.88C133.758 224.368 133.342 225.024 132.174 225.024C131.774 225.024 131.07 224.928 130.558 224.688V220.096Z" fill="black"/>
<path d="M137.639 224.496C137.639 225.936 138.247 226.128 138.647 226.128C138.967 226.128 139.223 225.872 139.223 225.552C139.223 225.424 139.159 225.312 139.111 225.248C138.919 225.056 138.887 224.848 138.887 224.496V220.496L140.535 219.408C140.695 219.296 140.791 219.12 140.791 218.944C140.791 218.88 140.775 218.816 140.759 218.752C140.679 218.512 140.455 218.352 140.231 218.352C140.023 218.352 139.911 218.416 139.767 218.512L138.887 219.088V215.024C138.887 214.672 138.615 214.4 138.263 214.4C137.911 214.4 137.639 214.688 137.639 215.024V219.92L136.231 220.832C136.055 220.944 135.959 221.136 135.959 221.312C135.959 221.728 136.279 221.92 136.615 221.92C136.743 221.92 136.871 221.824 136.983 221.744L137.639 221.312V224.496Z" fill="black"/>
<path d="M144.821 225.024C143.669 225.024 143.077 224.448 143.077 223.552V222.608C143.637 222.704 144.229 222.752 144.709 222.752C146.613 222.752 147.413 221.856 147.413 220.384C147.413 218.8 146.533 217.776 144.757 217.776C142.853 217.776 141.829 218.944 141.829 220.48V223.472C141.829 224.976 142.869 226.128 144.677 226.128C145.541 226.128 147.269 225.872 147.269 225.088C147.269 224.8 147.029 224.528 146.709 224.528C146.597 224.528 146.517 224.56 146.485 224.576C145.925 224.832 145.493 225.024 144.821 225.024ZM146.181 220.384C146.181 221.04 145.973 221.696 144.757 221.696C144.437 221.696 143.669 221.664 143.077 221.584V220.368C143.077 219.472 143.685 218.912 144.725 218.912C145.653 218.912 146.181 219.344 146.181 220.384Z" fill="black"/>
<path d="M158.062 225.504C158.062 225.84 158.27 226.112 158.686 226.112C159.102 226.112 159.31 225.84 159.31 225.504V220.496C159.31 218.88 158.366 217.776 156.638 217.776C155.742 217.776 154.99 218.08 154.318 218.592C153.918 218.064 153.342 217.776 152.462 217.776C151.63 217.776 150.83 218.048 150.126 218.496C149.966 218.24 149.758 218.064 149.486 218.064C149.15 218.064 148.894 218.304 148.894 218.624C148.894 218.784 148.974 218.88 149.006 218.944C149.15 219.184 149.294 219.184 149.294 220.064V225.504C149.294 225.84 149.502 226.112 149.918 226.112C150.334 226.112 150.542 225.84 150.542 225.504V220.064C150.542 219.92 150.526 219.76 150.494 219.568C150.942 219.232 151.646 218.928 152.35 218.928C153.486 218.928 153.678 219.728 153.678 220.864V225.504C153.678 225.84 153.886 226.112 154.302 226.112C154.718 226.112 154.926 225.84 154.926 225.504V220.496C154.926 220.24 154.894 220 154.846 219.776C155.23 219.296 155.918 218.928 156.606 218.928C157.582 218.928 158.062 219.632 158.062 220.528V225.504Z" fill="black"/>
<path d="M163.204 225.28C163.204 224.816 162.82 224.432 162.356 224.432C161.876 224.432 161.492 224.816 161.492 225.28C161.492 225.744 161.828 226.112 162.276 226.16C162.084 226.832 161.684 227.12 161.684 227.632C161.684 227.84 161.828 227.904 161.988 227.904C162.42 227.904 163.204 226.352 163.204 225.28Z" fill="black"/>
<path d="M0.847971 244.08C0.847971 246.192 2.97597 246.304 3.98397 246.848C4.30397 247.024 4.57597 247.264 4.57597 247.84C4.57597 248.672 3.98397 249.024 3.10397 249.024C2.46397 249.024 1.95197 248.832 1.50397 248.656C1.45597 248.64 1.43997 248.624 1.34397 248.624C0.959971 248.624 0.751971 248.928 0.751971 249.2C0.751971 249.936 2.28797 250.128 3.10397 250.128C4.87997 250.128 5.79197 249.232 5.79197 247.792C5.79197 245.712 3.91997 245.568 2.81597 245.024C2.27197 244.752 2.06397 244.496 2.06397 244C2.06397 243.264 2.51197 242.88 3.48797 242.88C4.06397 242.88 4.36797 243.008 4.70397 243.168C4.79997 243.216 4.87997 243.248 4.99197 243.248C5.32797 243.248 5.56797 242.976 5.56797 242.672C5.56797 242 4.27197 241.776 3.43997 241.776C1.74397 241.776 0.847971 242.704 0.847971 244.08Z" fill="black"/>
<path d="M10.756 250.112C12.788 250.112 13.428 248.784 13.428 246.88V244.8C13.428 243.008 12.564 241.776 10.884 241.776C10.052 241.776 9.26797 242.096 8.54797 242.48C8.38797 242.256 8.17997 242.096 7.92397 242.096C7.65197 242.096 7.36397 242.32 7.36397 242.656C7.36397 242.8 7.41197 242.88 7.47597 242.976C7.66797 243.264 7.73197 243.568 7.73197 244.096V252.832C7.73197 253.168 7.95597 253.44 8.35597 253.44C8.75597 253.44 8.97997 253.168 8.97997 252.832V249.808C9.55597 250 10.212 250.112 10.756 250.112ZM8.97997 244.096C8.97997 243.904 8.94797 243.68 8.89997 243.44C9.44397 243.104 10.084 242.896 10.628 242.896C11.684 242.896 12.18 243.552 12.18 244.8V246.88C12.18 248.368 11.764 249.024 10.596 249.024C10.196 249.024 9.49197 248.928 8.97997 248.688V244.096Z" fill="black"/>
<path d="M17.8526 250.128C19.8046 250.128 20.8446 248.88 20.8446 247.28V244.608C20.8446 243.008 19.8046 241.76 17.8526 241.76C15.9006 241.76 14.8606 243.008 14.8606 244.608V247.28C14.8606 248.88 15.9006 250.128 17.8526 250.128ZM17.8526 248.976C16.7006 248.976 16.1086 248.336 16.1086 247.28V244.592C16.1086 243.552 16.7006 242.912 17.8526 242.912C19.0046 242.912 19.5966 243.552 19.5966 244.592V247.28C19.5966 248.336 19.0046 248.976 17.8526 248.976Z" fill="black"/>
<path d="M23.9945 239.024C23.9945 238.672 23.7225 238.4 23.3705 238.4C23.0185 238.4 22.7465 238.672 22.7465 239.024V249.504C22.7465 249.856 23.0185 250.128 23.3705 250.128C23.7225 250.128 23.9945 249.856 23.9945 249.504V246.64L24.5705 246.048L27.0505 249.824C27.1785 250.032 27.3545 250.128 27.5625 250.128C27.8825 250.128 28.1385 249.92 28.1545 249.6C28.1545 249.488 28.1225 249.328 28.0585 249.232L25.3545 245.232L27.7065 242.832C27.8185 242.72 27.8665 242.576 27.8665 242.416C27.8665 242.096 27.6105 241.84 27.2745 241.84C27.1305 241.84 26.9705 241.888 26.8905 241.984L23.9945 244.992V239.024Z" fill="black"/>
<path d="M32.1182 250.128C34.0702 250.128 35.1102 248.88 35.1102 247.28V244.608C35.1102 243.008 34.0702 241.76 32.1182 241.76C30.1662 241.76 29.1262 243.008 29.1262 244.608V247.28C29.1262 248.88 30.1662 250.128 32.1182 250.128ZM32.1182 248.976C30.9662 248.976 30.3742 248.336 30.3742 247.28V244.592C30.3742 243.552 30.9662 242.912 32.1182 242.912C33.2702 242.912 33.8622 243.552 33.8622 244.592V247.28C33.8622 248.336 33.2702 248.976 32.1182 248.976Z" fill="black"/>
<path d="M38.4041 242.448C38.4041 242.112 38.1321 241.824 37.7801 241.824C37.4281 241.824 37.1561 242.112 37.1561 242.448V250.304C37.1561 251.472 36.6601 251.952 35.7961 252.144C35.5561 252.192 35.2041 252.4 35.3161 252.832C35.3801 253.088 35.5881 253.248 35.8441 253.248C35.9401 253.248 36.0201 253.248 36.1481 253.232C37.5881 253.024 38.4041 251.92 38.4041 250.24V242.448ZM38.5481 239.312C38.5481 238.88 38.2121 238.544 37.7801 238.544C37.3481 238.544 37.0121 238.88 37.0121 239.312C37.0121 239.728 37.3481 240.08 37.7801 240.08C38.2121 240.08 38.5481 239.728 38.5481 239.312Z" fill="black"/>
<path d="M43.462 249.024C42.31 249.024 41.718 248.448 41.718 247.552V246.608C42.278 246.704 42.87 246.752 43.35 246.752C45.254 246.752 46.054 245.856 46.054 244.384C46.054 242.8 45.174 241.776 43.398 241.776C41.494 241.776 40.47 242.944 40.47 244.48V247.472C40.47 248.976 41.51 250.128 43.318 250.128C44.182 250.128 45.91 249.872 45.91 249.088C45.91 248.8 45.67 248.528 45.35 248.528C45.238 248.528 45.158 248.56 45.126 248.576C44.566 248.832 44.134 249.024 43.462 249.024ZM44.822 244.384C44.822 245.04 44.614 245.696 43.398 245.696C43.078 245.696 42.31 245.664 41.718 245.584V244.368C41.718 243.472 42.326 242.912 43.366 242.912C44.294 242.912 44.822 243.344 44.822 244.384Z" fill="black"/>
<path d="M56.7031 249.504C56.7031 249.84 56.9111 250.112 57.3271 250.112C57.7431 250.112 57.9511 249.84 57.9511 249.504V244.496C57.9511 242.88 57.0071 241.776 55.2791 241.776C54.3831 241.776 53.6311 242.08 52.9591 242.592C52.5591 242.064 51.9831 241.776 51.1031 241.776C50.2711 241.776 49.4711 242.048 48.7671 242.496C48.6071 242.24 48.3991 242.064 48.1271 242.064C47.7911 242.064 47.5351 242.304 47.5351 242.624C47.5351 242.784 47.6151 242.88 47.6471 242.944C47.7911 243.184 47.9351 243.184 47.9351 244.064V249.504C47.9351 249.84 48.1431 250.112 48.5591 250.112C48.9751 250.112 49.1831 249.84 49.1831 249.504V244.064C49.1831 243.92 49.1671 243.76 49.1351 243.568C49.5831 243.232 50.2871 242.928 50.9911 242.928C52.1271 242.928 52.3191 243.728 52.3191 244.864V249.504C52.3191 249.84 52.5271 250.112 52.9431 250.112C53.3591 250.112 53.5671 249.84 53.5671 249.504V244.496C53.5671 244.24 53.5351 244 53.4871 243.776C53.8711 243.296 54.5591 242.928 55.2471 242.928C56.2231 242.928 56.7031 243.632 56.7031 244.528V249.504Z" fill="black"/>
<path d="M66.6731 239.312C66.6731 238.88 66.3371 238.544 65.9051 238.544C65.4731 238.544 65.1371 238.88 65.1371 239.312C65.1371 239.728 65.4731 240.08 65.9051 240.08C66.3371 240.08 66.6731 239.728 66.6731 239.312ZM66.5291 249.504V242.448C66.5291 242.112 66.2571 241.824 65.9051 241.824C65.5531 241.824 65.2811 242.112 65.2811 242.448V249.504C65.2811 249.856 65.5531 250.128 65.9051 250.128C66.2571 250.128 66.5291 249.856 66.5291 249.504Z" fill="black"/>
<path d="M82.6718 249.504C82.6718 249.84 82.8798 250.112 83.2958 250.112C83.7118 250.112 83.9198 249.84 83.9198 249.504V244.496C83.9198 242.88 82.9758 241.776 81.2478 241.776C80.3518 241.776 79.5998 242.08 78.9278 242.592C78.5278 242.064 77.9518 241.776 77.0718 241.776C76.2398 241.776 75.4398 242.048 74.7358 242.496C74.5758 242.24 74.3678 242.064 74.0958 242.064C73.7598 242.064 73.5038 242.304 73.5038 242.624C73.5038 242.784 73.5838 242.88 73.6158 242.944C73.7598 243.184 73.9038 243.184 73.9038 244.064V249.504C73.9038 249.84 74.1118 250.112 74.5278 250.112C74.9438 250.112 75.1518 249.84 75.1518 249.504V244.064C75.1518 243.92 75.1358 243.76 75.1038 243.568C75.5518 243.232 76.2558 242.928 76.9598 242.928C78.0958 242.928 78.2878 243.728 78.2878 244.864V249.504C78.2878 249.84 78.4958 250.112 78.9118 250.112C79.3278 250.112 79.5358 249.84 79.5358 249.504V244.496C79.5358 244.24 79.5038 244 79.4558 243.776C79.8398 243.296 80.5278 242.928 81.2158 242.928C82.1918 242.928 82.6718 243.632 82.6718 244.528V249.504Z" fill="black"/>
<path d="M87.845 239.312C87.845 238.88 87.509 238.544 87.077 238.544C86.645 238.544 86.309 238.88 86.309 239.312C86.309 239.728 86.645 240.08 87.077 240.08C87.509 240.08 87.845 239.728 87.845 239.312ZM87.701 249.504V242.448C87.701 242.112 87.429 241.824 87.077 241.824C86.725 241.824 86.453 242.112 86.453 242.448V249.504C86.453 249.856 86.725 250.128 87.077 250.128C87.429 250.128 87.701 249.856 87.701 249.504Z" fill="black"/>
<path d="M90.9668 248.496C90.9668 249.936 91.5748 250.128 91.9748 250.128C92.2948 250.128 92.5508 249.872 92.5508 249.552C92.5508 249.424 92.4868 249.312 92.4388 249.248C92.2468 249.056 92.2148 248.848 92.2148 248.496V244.496L93.8628 243.408C94.0228 243.296 94.1188 243.12 94.1188 242.944C94.1188 242.88 94.1028 242.816 94.0868 242.752C94.0068 242.512 93.7828 242.352 93.5588 242.352C93.3508 242.352 93.2388 242.416 93.0948 242.512L92.2148 243.088V239.024C92.2148 238.672 91.9428 238.4 91.5908 238.4C91.2388 238.4 90.9668 238.688 90.9668 239.024V243.92L89.5588 244.832C89.3828 244.944 89.2868 245.136 89.2868 245.312C89.2868 245.728 89.6068 245.92 89.9428 245.92C90.0708 245.92 90.1988 245.824 90.3108 245.744L90.9668 245.312V248.496Z" fill="black"/>
<path d="M98.1495 250.128C100.101 250.128 101.141 248.88 101.141 247.28V244.608C101.141 243.008 100.101 241.76 98.1495 241.76C96.1975 241.76 95.1575 243.008 95.1575 244.608V247.28C95.1575 248.88 96.1975 250.128 98.1495 250.128ZM98.1495 248.976C96.9975 248.976 96.4055 248.336 96.4055 247.28V244.592C96.4055 243.552 96.9975 242.912 98.1495 242.912C99.3015 242.912 99.8935 243.552 99.8935 244.592V247.28C99.8935 248.336 99.3015 248.976 98.1495 248.976Z" fill="black"/>
<path d="M102.707 244.08C102.707 246.192 104.835 246.304 105.843 246.848C106.163 247.024 106.435 247.264 106.435 247.84C106.435 248.672 105.843 249.024 104.963 249.024C104.323 249.024 103.811 248.832 103.363 248.656C103.315 248.64 103.299 248.624 103.203 248.624C102.819 248.624 102.611 248.928 102.611 249.2C102.611 249.936 104.147 250.128 104.963 250.128C106.739 250.128 107.651 249.232 107.651 247.792C107.651 245.712 105.779 245.568 104.675 245.024C104.131 244.752 103.923 244.496 103.923 244C103.923 243.264 104.371 242.88 105.347 242.88C105.923 242.88 106.227 243.008 106.563 243.168C106.659 243.216 106.739 243.248 106.851 243.248C107.187 243.248 107.427 242.976 107.427 242.672C107.427 242 106.131 241.776 105.299 241.776C103.603 241.776 102.707 242.704 102.707 244.08ZM104.675 240.016C104.611 240.096 104.595 240.176 104.595 240.256C104.595 240.592 104.835 240.816 105.123 240.816C105.331 240.816 105.443 240.704 105.635 240.528L106.931 239.152C106.995 239.072 107.011 238.96 107.011 238.88C107.011 238.576 106.739 238.352 106.515 238.352C106.227 238.352 106.147 238.512 105.923 238.72L104.675 240.016Z" fill="black"/>
<path d="M109.079 247.184C109.079 248.832 109.943 250.128 111.943 250.128C112.695 250.128 114.167 249.904 114.167 249.152C114.167 248.864 113.927 248.608 113.623 248.608C113.543 248.608 113.463 248.624 113.367 248.656C112.983 248.848 112.631 249.024 112.071 249.024C110.823 249.024 110.327 248.352 110.327 247.184V244.768C110.327 243.6 110.823 242.928 112.071 242.928C112.631 242.928 112.983 243.104 113.367 243.296C113.463 243.328 113.543 243.344 113.623 243.344C113.927 243.344 114.167 243.088 114.167 242.8C114.167 242.048 112.695 241.824 111.943 241.824C109.943 241.824 109.079 243.12 109.079 244.768V247.184Z" fill="black"/>
<path d="M117.361 239.312C117.361 238.88 117.025 238.544 116.593 238.544C116.161 238.544 115.825 238.88 115.825 239.312C115.825 239.728 116.161 240.08 116.593 240.08C117.025 240.08 117.361 239.728 117.361 239.312ZM117.217 249.504V242.448C117.217 242.112 116.945 241.824 116.593 241.824C116.241 241.824 115.969 242.112 115.969 242.448V249.504C115.969 249.856 116.241 250.128 116.593 250.128C116.945 250.128 117.217 249.856 117.217 249.504Z" fill="black"/>
<path d="M126.85 252.496C126.85 252.272 126.658 252.064 126.418 252.064C126.242 252.064 126.13 252.144 125.746 252.144C125.266 252.144 125.042 251.824 125.042 251.424C125.042 250.976 125.202 250.336 125.538 250C125.682 249.872 125.842 249.776 125.842 249.536C125.842 249.264 125.682 248.992 125.378 248.992C125.314 248.992 125.298 249.008 125.25 249.008C125.058 249.008 124.962 248.848 124.962 248.528V245.008C124.962 242.896 124.162 241.776 122.162 241.776C121.058 241.776 119.858 242.08 119.922 242.816C119.938 243.056 120.066 243.344 120.37 243.344C120.546 243.344 120.738 243.232 120.786 243.216C121.138 243.024 121.442 242.88 122.002 242.88C123.154 242.88 123.714 243.424 123.714 244.592V245.504C123.218 245.36 122.674 245.28 122.098 245.28C120.21 245.28 119.282 246.08 119.282 247.648V247.712C119.282 249.152 120.082 250.128 121.73 250.128C122.594 250.128 123.314 249.84 123.922 249.28C124.082 249.616 124.322 249.856 124.626 249.984C124.226 250.512 123.97 251.12 123.97 251.68C123.97 252.672 124.626 253.12 125.618 253.12C126.114 253.12 126.85 253.04 126.85 252.496ZM122.082 246.336C122.562 246.336 123.186 246.416 123.714 246.576V248.304C123.154 248.784 122.61 249.008 121.922 249.008C120.85 249.008 120.514 248.48 120.514 247.728V247.664C120.514 246.944 120.77 246.336 122.082 246.336Z" fill="black"/>
<path d="M128.969 249.28C128.969 248.816 128.585 248.432 128.121 248.432C127.641 248.432 127.257 248.816 127.257 249.28C127.257 249.76 127.641 250.16 128.121 250.16C128.585 250.16 128.969 249.76 128.969 249.28Z" fill="black"/>
<defs>
<linearGradient id="paint0_linear" x1="0" y1="8" x2="32" y2="8" gradientUnits="userSpaceOnUse">
<stop stop-color="#D91E9D"/>
<stop offset="1" stop-color="#8010A7"/>
</linearGradient>
</defs>
</svg>
